<svg width="460" height="135" viewBox="0 0 460 135" fill="none" xmlns="http://www.w3.org/2000/svg">
<g clip-path="url(#clip0_1_3)">
<path d="M0 56V112.133L13.7333 118.667C56.2667 139.2 100.133 138.8 142.133 117.6C154.933 111.2 173.467 98.1333 184.133 88.2667C195.067 78 200.267 74.9333 213.867 70.8C228.133 66.4 245.067 66.9333 275.6 72.8C311.867 79.6 324.533 81.2 350 82.1333C371.467 83.0667 373.333 82.9333 382 80C399.6 74.2667 418.8 63.2 430.133 52.5333C444.533 38.8 453.333 23.3333 457.867 3.59999L458.667 -1.20639e-05H229.333H0V56Z" fill="#C99F3B"/>
</g>
<defs>
<clipPath id="clip0_1_3">
<rect width="460" height="134.667" fill="white"/>
</clipPath>
</defs>
</svg>
