<?xml version="1.0" encoding="UTF-8"?>
<!DOCTYPE svg PUBLIC "-//W3C//DTD SVG 1.1//EN" "http://www.w3.org/Graphics/SVG/1.1/DTD/svg11.dtd">
<!-- Creator: CorelDRAW 2020 (64-Bit) -->
<svg xmlns="http://www.w3.org/2000/svg" xml:space="preserve" width="633px" height="180px" version="1.1" style="shape-rendering:geometricPrecision; text-rendering:geometricPrecision; image-rendering:optimizeQuality; fill-rule:evenodd; clip-rule:evenodd"
viewBox="0 0 7.21 2.05"
 xmlns:xlink="http://www.w3.org/1999/xlink"
 xmlns:xodm="http://www.corel.com/coreldraw/odm/2003">
 <defs>
  <style type="text/css">
   <![CDATA[
    .fil1 {fill:#158F9E}
    .fil0 {fill:#FFFEFE}
    .fil2 {fill:black;fill-rule:nonzero}
    .fil3 {fill:gray;fill-rule:nonzero}
   ]]>
  </style>
 </defs>
 <g id="Layer_x0020_1">
  <metadata id="CorelCorpID_0Corel-Layer"/>
  <rect class="fil0" width="7.21" height="2.05" rx="0.4" ry="0.4"/>
  <circle class="fil1" cx="1.1" cy="1.03" r="0.61"/>
  <g id="_2649417174240">
   <path class="fil0" d="M0.92 0.85c0,0.01 0,0.04 0,0.05 0,0 -0.01,-0.01 -0.01,-0.01 -0.02,-0.01 -0.03,-0.02 -0.05,-0.02 -0.03,0.01 -0.02,0.05 -0.02,0.08 -0.01,0 -0.03,-0.01 -0.04,-0.02 -0.02,0 -0.03,0.01 -0.03,0.02 0,0.01 0,0.09 0,0.1 0.02,0.01 0.04,0.02 0.07,0.02 0.02,0.01 0.02,0.04 0.01,0.05 0,0.01 0,0.01 0,0.02 0,0.01 -0.01,0.01 -0.01,0.02 0,0.01 0,0.02 -0.01,0.03 0,0.01 0.01,0.01 0,0.02 -0.01,0.03 -0.04,0.01 -0.06,0.01l0 0.11c0,0.02 0,0.01 0.01,0.02 0,0.01 0,0.01 0.01,0.01l0.11 0.04c0.02,0.01 0.1,0.03 0.13,0.04l0 -0.43c-0.01,0 -0.08,-0.03 -0.09,-0.03 -0.03,-0.01 -0.06,-0.02 -0.08,-0.03 0,-0.01 0,-0.04 0,-0.05 0,-0.01 0.01,-0.01 0.01,-0.01 0.01,0 0.02,0.01 0.02,0.01l0.19 0.13c-0.01,0 -0.03,-0.02 -0.04,-0.02l0 0.43c0.01,0.01 0.04,0.02 0.06,0.02 0.01,0 0.02,0 0.03,-0.01 0.01,0 0.03,0 0.03,-0.01l0 -0.43c-0.01,0 -0.02,0.01 -0.03,0.02l0.15 -0.11c0.01,-0.01 0.04,-0.03 0.05,-0.03 0.01,0 0.01,0 0.01,0.01 0,0.01 0,0.04 0,0.05l-0.17 0.06 0 0.43c0.01,0 0.03,-0.01 0.04,-0.01 0.01,0 0.02,-0.01 0.03,-0.01 0.02,-0.01 0.04,-0.02 0.06,-0.02l0.1 -0.03c0.02,-0.01 0.02,-0.02 0.03,-0.02 0,-0.01 0,0 0,-0.03l0 -0.1c-0.02,0 -0.05,0.02 -0.06,-0.01 0,-0.01 0,-0.01 0,-0.02 -0.01,-0.01 -0.01,-0.02 -0.01,-0.03 -0.01,-0.01 -0.01,-0.02 -0.01,-0.04 0,0 0,0 -0.01,-0.01 0,-0.01 0.01,-0.03 0.02,-0.04 0.03,0 0.05,-0.01 0.07,-0.02 0,-0.01 0,-0.09 0,-0.1 0,-0.01 0,-0.01 -0.01,-0.01 -0.02,-0.01 -0.04,0.01 -0.06,0.01 0,-0.02 0,-0.04 0,-0.05 0,-0.01 -0.01,-0.02 -0.02,-0.03 -0.02,-0.01 -0.03,0.01 -0.06,0.03l0 0c0,-0.02 0,-0.04 -0.01,-0.05 0,-0.02 -0.01,-0.03 -0.03,-0.02 -0.01,0 -0.01,0.01 -0.02,0.01 -0.01,0.02 -0.12,0.17 -0.12,0.18l-0.02 -0.03c-0.01,-0.01 -0.01,-0.02 -0.02,-0.03 -0.01,-0.02 -0.03,-0.04 -0.04,-0.06 -0.01,-0.02 -0.03,-0.04 -0.04,-0.06 -0.01,-0.01 -0.01,-0.02 -0.03,-0.01 -0.01,0 -0.03,0.01 -0.03,0.02z"/>
   <path class="fil0" d="M0.95 0.81c0.03,0 0.03,0.01 0.04,0.03l0.04 0.05c0,0.01 0,0.01 0.02,0.01 0.03,0.02 0.07,0.02 0.1,0 0.01,0 0.02,0 0.02,-0.01l0.04 -0.05c0.01,-0.02 0.01,-0.03 0.04,-0.03 0.01,-0.02 0.01,-0.05 0.01,-0.08 -0.01,-0.03 -0.02,-0.05 -0.03,-0.07 -0.06,-0.09 -0.19,-0.09 -0.26,0 -0.03,0.04 -0.04,0.1 -0.02,0.15z"/>
   <path class="fil0" d="M0.78 1.18l0 -0.01c0.01,0 0.05,0.02 0.05,0 0,-0.01 -0.01,-0.02 -0.02,-0.02 -0.01,0 -0.02,-0.01 -0.03,-0.01l0 0c0.01,0 0.04,0.01 0.05,0.01 0.01,-0.01 0.01,-0.02 0,-0.03 -0.01,0 -0.04,-0.01 -0.05,-0.01 0,0 0,0 0,-0.01 0.01,0 0.05,0.01 0.06,0.01 0.01,0 0.01,-0.01 0,-0.02 0,-0.01 -0.01,-0.01 -0.02,-0.01 -0.02,0 -0.05,-0.01 -0.06,-0.01 -0.02,0 -0.04,0.01 -0.04,0.04 0,0.01 0,0.05 0.01,0.07 0,0.02 0.02,0.02 0.04,0.02 0.01,0.01 0.02,0.01 0.03,0.01 0.01,0 0.02,0.01 0.02,0 0,-0.01 -0.01,-0.02 -0.01,-0.03 -0.01,0 -0.03,0 -0.03,0z"/>
   <path class="fil0" d="M1.42 1.1l0 0.01c-0.01,0 -0.05,0 -0.06,0.02 0,0.01 0,0.02 0.01,0.02 0,0 0.04,-0.01 0.05,-0.01l0 0c0,0 -0.04,0.01 -0.04,0.01 -0.01,0.01 -0.02,0.04 0.01,0.03 0.01,0 0.02,-0.01 0.03,-0.01 0,0.01 0,0.01 -0.02,0.01 -0.01,0.01 -0.02,0.01 -0.02,0.02 0,0.02 0.01,0.02 0.02,0.01 0.01,0 0.02,0 0.03,-0.01 0.02,0 0.04,0 0.04,-0.02 0.01,-0.01 0.01,-0.06 0.01,-0.07 0,-0.02 0,-0.02 -0.01,-0.03 -0.02,-0.03 -0.05,-0.01 -0.08,0 -0.01,0 -0.03,0 -0.03,0.01 -0.01,0 -0.01,0.02 0,0.02 0.01,0 0.05,-0.01 0.06,-0.01z"/>
  </g>
  <path class="fil2" d="M2.38 0.83c0,0 0,0 0,0 0,0 0,0 0,0.01 -0.01,0 -0.01,0 -0.01,0 0,0 -0.01,0 -0.01,0 -0.01,0 -0.01,0 -0.01,0 -0.01,0 -0.01,0 -0.01,0 0,-0.01 -0.01,-0.01 -0.01,-0.01 0,0 0,0 0,0l0 -0.22c0,0 0,0 0,0 0,0 0.01,0 0.01,-0.01 0,0 0,0 0.01,0 0,0 0,0 0.01,0 0,0 0.01,0 0.01,0 0,0 0,0 0.01,0 0,0.01 0,0.01 0,0.01 0,0 0,0 0,0l0 0.22z"/>
  <path id="1" class="fil2" d="M2.57 0.68c0,0.01 0,0.01 0,0.01 0,0.01 0,0.01 0,0.01l-0.02 0c0,0 0,0 0,0.01 0,0 0,0.01 0,0.01 0,0.01 0,0.02 0,0.02 0,0.01 -0.01,0.02 -0.01,0.02 -0.01,0.01 -0.02,0.01 -0.02,0.01 -0.01,0.01 -0.02,0.01 -0.03,0.01 -0.01,0 -0.01,0 -0.02,0 0,-0.01 -0.01,-0.01 -0.01,-0.01 0,0 0,0 0,0.01 0,0 0,0 0,0 0,0.01 0,0.01 0,0.01 0,0 0.01,0.01 0.01,0.01l0.04 0c0.01,0 0.02,0 0.03,0 0,0 0.01,0.01 0.02,0.01 0,0 0,0.01 0.01,0.02 0,0 0,0.01 0,0.01 0,0.01 0,0.02 0,0.03 -0.01,0 -0.01,0.01 -0.02,0.01 -0.01,0.01 -0.02,0.01 -0.03,0.02 -0.01,0 -0.02,0 -0.03,0 -0.02,0 -0.03,0 -0.04,0 -0.01,0 -0.02,-0.01 -0.02,-0.01 -0.01,0 -0.01,-0.01 -0.02,-0.01 0,-0.01 0,-0.02 0,-0.02 0,-0.01 0,-0.01 0,-0.01 0,-0.01 0,-0.01 0.01,-0.01 0,-0.01 0,-0.01 0,-0.01 0.01,-0.01 0.01,-0.01 0.01,-0.01 0,0 -0.01,-0.01 -0.01,-0.01 0,-0.01 0,-0.01 0,-0.02 0,-0.01 0,-0.01 0,-0.02 0.01,0 0.01,-0.01 0.01,-0.01 0,-0.01 0,-0.01 -0.01,-0.02 0,0 0,-0.01 0,-0.02 0,-0.01 0,-0.02 0.01,-0.03 0,0 0,-0.01 0.01,-0.01 0.01,-0.01 0.01,-0.01 0.02,-0.02 0.01,0 0.02,0 0.03,0 0,0 0.01,0 0.01,0 0.01,0 0.01,0 0.01,0l0.06 0c0,0 0,0 0,0.01 0,0 0,0 0,0.01zm-0.06 0.04c0,-0.01 0,-0.02 0,-0.02 -0.01,-0.01 -0.01,-0.01 -0.02,-0.01 -0.01,0 -0.01,0 -0.01,0 -0.01,0.01 -0.01,0.01 -0.01,0.01 -0.01,0 -0.01,0.01 -0.01,0.01 0,0 0,0.01 0,0.01 0,0.01 0,0.01 0.01,0.02 0,0 0.01,0.01 0.02,0.01 0,0 0.01,0 0.01,-0.01 0,0 0.01,0 0.01,0 0,0 0,-0.01 0,-0.01 0,0 0,-0.01 0,-0.01zm0.02 0.13c0,-0.01 -0.01,-0.01 -0.01,-0.02 -0.01,0 -0.01,0 -0.02,0l-0.03 0c0,0 -0.01,0 -0.01,0.01 0,0 0,0 0,0 0,0 -0.01,0 -0.01,0.01 0,0 0,0 0,0 0,0.01 0.01,0.01 0.01,0.02 0.01,0 0.02,0 0.03,0 0.01,0 0.01,0 0.02,0 0,0 0,0 0.01,-0.01 0,0 0,0 0,0 0,-0.01 0.01,-0.01 0.01,-0.01z"/>
  <path id="2" class="fil2" d="M2.76 0.83c0,0 0,0 -0.01,0 0,0 0,0 0,0.01 0,0 0,0 -0.01,0 0,0 0,0 -0.01,0 0,0 -0.01,0 -0.01,0 0,0 0,0 -0.01,0 0,-0.01 0,-0.01 0,-0.01 0,0 0,0 0,0l0 -0.09c0,-0.01 0,-0.02 0,-0.02 0,0 0,-0.01 -0.01,-0.01 0,0 0,-0.01 0,-0.01 -0.01,0 -0.01,0 -0.02,0 0,0 -0.01,0 -0.01,0.01 -0.01,0 -0.02,0.01 -0.02,0.01l0 0.11c0,0 0,0 0,0 0,0 -0.01,0 -0.01,0.01 0,0 0,0 0,0 -0.01,0 -0.01,0 -0.01,0 -0.01,0 -0.01,0 -0.02,0 0,0 0,0 0,0 0,-0.01 -0.01,-0.01 -0.01,-0.01 0,0 0,0 0,0l0 -0.16c0,0 0,0 0,0 0,0 0.01,-0.01 0.01,-0.01 0,0 0,0 0,0 0.01,0 0.01,0 0.01,0 0.01,0 0.01,0 0.01,0 0,0 0.01,0 0.01,0 0,0 0,0.01 0,0.01 0,0 0,0 0,0l0 0.02c0.01,-0.01 0.02,-0.02 0.03,-0.02 0.01,-0.01 0.02,-0.01 0.03,-0.01 0.01,0 0.02,0 0.02,0 0.01,0.01 0.02,0.01 0.02,0.02 0.01,0.01 0.01,0.01 0.01,0.02 0,0.01 0.01,0.02 0.01,0.03l0 0.1z"/>
  <path id="3" class="fil2" d="M2.85 0.83c0,0 -0.01,0 -0.01,0 0,0 0,0 0,0.01 0,0 0,0 -0.01,0 0,0 0,0 -0.01,0 0,0 -0.01,0 -0.01,0 0,0 0,0 -0.01,0 0,-0.01 0,-0.01 0,-0.01 0,0 0,0 0,0l0 -0.16c0,0 0,0 0,0 0,0 0,0 0,-0.01 0.01,0 0.01,0 0.01,0 0,0 0.01,0 0.01,0 0.01,0 0.01,0 0.01,0 0.01,0 0.01,0 0.01,0 0,0.01 0,0.01 0,0.01 0,0 0.01,0 0.01,0l0 0.16zm0 -0.21c0,0 0,0.01 -0.01,0.01 0,0.01 -0.01,0.01 -0.02,0.01 -0.01,0 -0.01,0 -0.02,-0.01 0,0 0,-0.01 0,-0.01 0,-0.01 0,-0.02 0,-0.02 0.01,-0.01 0.01,-0.01 0.02,-0.01 0.01,0 0.02,0 0.02,0.01 0.01,0 0.01,0.01 0.01,0.02z"/>
  <path id="4" class="fil2" d="M2.99 0.81c0,0.01 -0.01,0.01 -0.01,0.02 0,0 0,0 0,0 0,0 0,0 0,0.01 -0.01,0 -0.01,0 -0.01,0 0,0 -0.01,0 -0.01,0 0,0 -0.01,0 -0.01,0 -0.01,0 -0.02,0 -0.02,0 -0.01,-0.01 -0.02,-0.01 -0.02,-0.01 0,-0.01 -0.01,-0.01 -0.01,-0.02 0,-0.01 0,-0.02 0,-0.03l0 -0.08 -0.02 0c0,0 -0.01,0 -0.01,0 0,-0.01 0,-0.01 0,-0.02 0,0 0,0 0,-0.01 0,0 0,0 0,0 0,0 0,0 0.01,-0.01 0,0 0,0 0,0l0.02 0 0 -0.03c0,0 0,0 0,-0.01 0,0 0,0 0,0 0,0 0.01,0 0.01,0 0,0 0.01,0 0.01,0 0,0 0.01,0 0.01,0 0,0 0.01,0 0.01,0 0,0 0,0 0,0 0,0.01 0,0.01 0,0.01l0 0.03 0.04 0c0,0 0,0 0,0 0,0.01 0,0.01 0,0.01 0,0 0,0 0,0 0,0.01 0.01,0.01 0.01,0.01 0,0.01 -0.01,0.01 -0.01,0.02 0,0 0,0 0,0l-0.04 0 0 0.08c0,0 0,0.01 0.01,0.02 0,0 0,0 0.01,0 0,0 0.01,0 0.01,0 0,0 0,0 0,0 0.01,0 0.01,0 0.01,0 0,0 0,0 0,0 0,0 0,0 0,0 0,0 0,0 0,0 0,0 0,0 0,0.01 0,0 0.01,0 0.01,0z"/>
  <path id="5" class="fil2" d="M3.16 0.75c0,0 0,0 0,0.01 -0.01,0 -0.01,0 -0.01,0l-0.1 0c0,0.01 0,0.01 0,0.02 0,0.01 0.01,0.01 0.01,0.01 0,0.01 0.01,0.01 0.01,0.01 0.01,0 0.02,0.01 0.02,0.01 0.01,0 0.02,0 0.02,-0.01 0.01,0 0.02,0 0.02,0 0,0 0.01,0 0.01,0 0,0 0.01,-0.01 0.01,-0.01 0,0 0,0.01 0,0.01 0,0 0,0 0,0 0,0 0,0 0,0 0,0 0,0.01 0,0.01 0,0 0,0 0,0.01 0,0 0,0 0,0 0,0 0,0 0,0 0,0.01 0,0.01 0,0.01 0,0 0,0 -0.01,0 0,0 0,0 -0.01,0 -0.01,0.01 -0.01,0.01 -0.02,0.01 -0.01,0 -0.01,0 -0.02,0 -0.02,0 -0.03,0 -0.04,-0.01 -0.01,0 -0.02,0 -0.03,-0.01 0,-0.01 -0.01,-0.02 -0.01,-0.03 0,-0.01 -0.01,-0.02 -0.01,-0.04 0,-0.01 0.01,-0.03 0.01,-0.04 0,-0.01 0.01,-0.02 0.02,-0.03 0,0 0.01,-0.01 0.02,-0.01 0.01,-0.01 0.02,-0.01 0.04,-0.01 0.01,0 0.02,0 0.03,0.01 0.01,0 0.02,0 0.02,0.01 0.01,0.01 0.01,0.02 0.02,0.03 0,0.01 0,0.02 0,0.03l0 0.01zm-0.04 -0.02c0,-0.01 0,-0.02 -0.01,-0.03 -0.01,0 -0.01,-0.01 -0.03,-0.01 0,0 -0.01,0 -0.01,0 0,0.01 -0.01,0.01 -0.01,0.01 0,0.01 -0.01,0.01 -0.01,0.02 0,0 0,0.01 0,0.01l0.07 0z"/>
  <path id="6" class="fil2" d="M3.38 0.75l0 0.08c0,0 0,0 0,0 0,0 -0.01,0 -0.01,0.01 0,0 0,0 0,0 -0.01,0 -0.01,0 -0.02,0 0,0 0,0 -0.01,0 0,0 0,0 0,0 -0.01,-0.01 -0.01,-0.01 -0.01,-0.01 0,0 0,0 0,0l0 -0.08 -0.06 -0.13c-0.01,0 -0.01,-0.01 -0.01,-0.01 0,0 0,0 0,0 0,-0.01 0.01,-0.01 0.01,-0.01 0,0 0.01,0 0.02,0 0,0 0.01,0 0.01,0 0,0 0.01,0 0.01,0 0,0 0,0.01 0,0.01 0,0 0,0 0,0l0.03 0.06c0,0 0.01,0.01 0.01,0.02 0,0 0,0.01 0.01,0.01l0 0c0,0 0,-0.01 0,-0.01 0,-0.01 0.01,-0.02 0.01,-0.02l0.02 -0.06c0.01,0 0.01,0 0.01,0 0,0 0,0 0,-0.01 0,0 0.01,0 0.01,0 0,0 0.01,0 0.01,0 0.01,0 0.01,0 0.02,0 0,0 0,0 0,0.01 0.01,0 0.01,0 0.01,0 -0.01,0 -0.01,0.01 -0.01,0.01l-0.06 0.13z"/>
  <path id="7" class="fil2" d="M3.6 0.75c0,0.01 0,0.02 0,0.04 0,0.01 -0.01,0.02 -0.02,0.02 0,0.01 -0.01,0.02 -0.02,0.02 -0.02,0.01 -0.03,0.01 -0.04,0.01 -0.02,0 -0.03,0 -0.04,-0.01 -0.01,0 -0.02,-0.01 -0.03,-0.01 0,-0.01 -0.01,-0.02 -0.01,-0.03 -0.01,-0.01 -0.01,-0.02 -0.01,-0.04 0,-0.01 0,-0.02 0.01,-0.04 0,-0.01 0.01,-0.02 0.01,-0.03 0.01,0 0.02,-0.01 0.03,-0.01 0.01,-0.01 0.03,-0.01 0.04,-0.01 0.02,0 0.03,0 0.04,0.01 0.01,0 0.02,0.01 0.02,0.01 0.01,0.01 0.02,0.02 0.02,0.03 0,0.01 0,0.02 0,0.04zm-0.04 0c0,-0.01 0,-0.02 0,-0.02 -0.01,-0.01 -0.01,-0.01 -0.01,-0.02 0,0 -0.01,-0.01 -0.01,-0.01 -0.01,0 -0.01,0 -0.02,0 -0.01,0 -0.01,0 -0.02,0 0,0 -0.01,0 -0.01,0.01 0,0 -0.01,0.01 -0.01,0.02 0,0 0,0.01 0,0.02 0,0.01 0,0.01 0,0.02 0,0.01 0,0.01 0.01,0.02 0,0 0,0.01 0.01,0.01 0,0 0.01,0 0.02,0 0.01,0 0.01,0 0.02,0 0,0 0.01,-0.01 0.01,-0.01 0,0 0,-0.01 0.01,-0.02 0,0 0,-0.01 0,-0.02z"/>
  <path id="8" class="fil2" d="M3.79 0.83c0,0 0,0 0,0 0,0 0,0 0,0.01 0,0 -0.01,0 -0.01,0 0,0 0,0 -0.01,0 0,0 0,0 -0.01,0 0,0 0,0 0,0 0,-0.01 0,-0.01 -0.01,-0.01 0,0 0,0 0,0l0 -0.02c-0.01,0.01 -0.01,0.02 -0.02,0.02 -0.01,0.01 -0.02,0.01 -0.03,0.01 -0.01,0 -0.02,0 -0.03,-0.01 -0.01,0 -0.01,0 -0.02,-0.01 0,-0.01 -0.01,-0.01 -0.01,-0.02 0,-0.01 0,-0.02 0,-0.03l0 -0.1c0,0 0,0 0,0 0,0 0,-0.01 0,-0.01 0.01,0 0.01,0 0.01,0 0,0 0.01,0 0.01,0 0.01,0 0.01,0 0.01,0 0.01,0 0.01,0 0.01,0 0,0 0,0.01 0,0.01 0,0 0,0 0,0l0 0.09c0,0.01 0.01,0.01 0.01,0.02 0,0 0,0.01 0,0.01 0,0 0.01,0.01 0.01,0.01 0,0 0.01,0 0.01,0 0.01,0 0.01,0 0.02,-0.01 0,0 0.01,-0.01 0.02,-0.01l0 -0.11c0,0 0,0 0,0 0,0 0,-0.01 0,-0.01 0,0 0.01,0 0.01,0 0,0 0.01,0 0.01,0 0,0 0.01,0 0.01,0 0,0 0.01,0 0.01,0 0,0 0,0.01 0,0.01 0,0 0,0 0,0l0 0.16z"/>
  <path id="9" class="fil2" d="M3.94 0.68c0,0.01 0,0.01 0,0.02 0,0 0,0 0,0 0,0 0,0 0,0 0,0.01 0,0.01 -0.01,0.01 0,0 0,0 0,0 0,-0.01 0,-0.01 0,-0.01 0,0 -0.01,0 -0.01,0 0,0 0,0 0,0 -0.01,0 -0.01,0 -0.01,0 0,0 -0.01,0.01 -0.01,0.01 0,0 0,0 -0.01,0.01 0,0 0,0 -0.01,0.01l0 0.1c0,0 0,0 0,0 0,0 0,0 0,0.01 0,0 -0.01,0 -0.01,0 0,0 -0.01,0 -0.01,0 0,0 -0.01,0 -0.01,0 0,0 -0.01,0 -0.01,0 0,-0.01 0,-0.01 0,-0.01 0,0 0,0 0,0l0 -0.16c0,0 0,0 0,0 0,0 0,-0.01 0,-0.01 0,0 0.01,0 0.01,0 0,0 0,0 0.01,0 0,0 0,0 0.01,0 0,0 0,0 0,0 0,0 0,0.01 0.01,0.01 0,0 0,0 0,0l0 0.02c0,-0.01 0,-0.01 0.01,-0.02 0,0 0.01,0 0.01,0 0,-0.01 0.01,-0.01 0.01,-0.01 0,0 0.01,0 0.01,0 0,0 0,0 0,0 0.01,0 0.01,0 0.01,0 0,0 0,0 0,0 0.01,0 0.01,0 0.01,0 0,0 0,0.01 0,0.01 0,0 0,0 0,0 0,0 0,0 0,0 0,0.01 0,0.01 0,0.01z"/>
  <path id="10" class="fil2" d="M4.18 0.82c0,0 0,0 0,0.01 0,0 0,0 0,0 0,0 0,0 0,0 0,0.01 0,0.01 -0.01,0.01l-0.1 0c-0.01,0 -0.01,-0.01 -0.01,-0.01 0,0 -0.01,0 -0.01,-0.01l0 -0.21c0,0 0,0 0.01,0 0,0 0,0 0,-0.01 0,0 0,0 0.01,0 0,0 0,0 0.01,0 0,0 0.01,0 0.01,0 0,0 0,0 0.01,0 0,0.01 0,0.01 0,0.01 0,0 0,0 0,0l0 0.19 0.07 0c0.01,0 0.01,0 0.01,0 0,0 0,0 0,0 0,0 0,0 0,0.01 0,0 0,0 0,0.01z"/>
  <path id="11" class="fil2" d="M4.37 0.75c0,0.01 0,0.02 -0.01,0.04 0,0.01 -0.01,0.02 -0.01,0.02 -0.01,0.01 -0.02,0.02 -0.03,0.02 -0.01,0.01 -0.02,0.01 -0.04,0.01 -0.01,0 -0.03,0 -0.04,-0.01 -0.01,0 -0.02,-0.01 -0.02,-0.01 -0.01,-0.01 -0.01,-0.02 -0.02,-0.03 0,-0.01 0,-0.02 0,-0.04 0,-0.01 0,-0.02 0,-0.04 0.01,-0.01 0.01,-0.02 0.02,-0.03 0.01,0 0.02,-0.01 0.03,-0.01 0.01,-0.01 0.02,-0.01 0.03,-0.01 0.02,0 0.03,0 0.04,0.01 0.01,0 0.02,0.01 0.03,0.01 0.01,0.01 0.01,0.02 0.01,0.03 0.01,0.01 0.01,0.02 0.01,0.04zm-0.05 0c0,-0.01 0,-0.02 0,-0.02 0,-0.01 0,-0.01 -0.01,-0.02 0,0 0,-0.01 -0.01,-0.01 0,0 -0.01,0 -0.02,0 0,0 -0.01,0 -0.01,0 -0.01,0 -0.01,0 -0.02,0.01 0,0 0,0.01 0,0.02 -0.01,0 -0.01,0.01 -0.01,0.02 0,0.01 0,0.01 0.01,0.02 0,0.01 0,0.01 0,0.02 0,0 0.01,0.01 0.01,0.01 0.01,0 0.01,0 0.02,0 0.01,0 0.02,0 0.02,0 0.01,0 0.01,-0.01 0.01,-0.01 0.01,0 0.01,-0.01 0.01,-0.02 0,0 0,-0.01 0,-0.02z"/>
  <path id="12" class="fil2" d="M4.55 0.67c0,0 0,0 0,0 0,0 0,0 0,0 0,0.01 0,0.01 0,0.01 0,0 0,0 0,0l-0.05 0.15c0,0 0,0 0,0 0,0 0,0 -0.01,0.01 0,0 0,0 -0.01,0 0,0 -0.01,0 -0.01,0 -0.01,0 -0.01,0 -0.02,0 0,0 0,0 -0.01,0 0,-0.01 0,-0.01 0,-0.01 0,0 0,0 0,0l-0.05 -0.15c0,0 0,0 0,0 0,-0.01 0,-0.01 -0.01,-0.01 0,0 0,0 0,0 0,0 0.01,0 0.01,0 0,0 0,-0.01 0,-0.01 0,0 0,0 0.01,0 0,0 0,0 0.01,0 0,0 0.01,0 0.01,0 0,0 0,0 0.01,0 0,0 0,0.01 0,0.01 0,0 0,0 0,0l0.04 0.12 0 0 0 0 0.04 -0.12c0,0 0,0 0,0 0,0 0,-0.01 0,-0.01 0,0 0.01,0 0.01,0 0,0 0,0 0.01,0 0,0 0.01,0 0.01,0 0,0 0,0 0.01,0 0,0 0,0.01 0,0.01 0,0 0,0 0,0z"/>
  <path id="13" class="fil2" d="M4.72 0.75c0,0 0,0 0,0.01 0,0 -0.01,0 -0.01,0l-0.1 0c0,0.01 0,0.01 0,0.02 0,0.01 0.01,0.01 0.01,0.01 0,0.01 0.01,0.01 0.01,0.01 0.01,0 0.02,0.01 0.02,0.01 0.01,0 0.02,0 0.02,-0.01 0.01,0 0.02,0 0.02,0 0,0 0.01,0 0.01,0 0,0 0.01,-0.01 0.01,-0.01 0,0 0,0.01 0,0.01 0,0 0,0 0,0 0,0 0,0 0,0 0,0 0,0.01 0,0.01 0,0 0,0 0,0.01 0,0 0,0 0,0 0,0 0,0 0,0 0,0.01 0,0.01 0,0.01 0,0 0,0 -0.01,0 0,0 0,0 -0.01,0 0,0.01 -0.01,0.01 -0.02,0.01 0,0 -0.01,0 -0.02,0 -0.01,0 -0.03,0 -0.04,-0.01 -0.01,0 -0.02,0 -0.02,-0.01 -0.01,-0.01 -0.02,-0.02 -0.02,-0.03 0,-0.01 -0.01,-0.02 -0.01,-0.04 0,-0.01 0.01,-0.03 0.01,-0.04 0,-0.01 0.01,-0.02 0.02,-0.03 0,0 0.01,-0.01 0.02,-0.01 0.01,-0.01 0.02,-0.01 0.04,-0.01 0.01,0 0.02,0 0.03,0.01 0.01,0 0.02,0 0.02,0.01 0.01,0.01 0.01,0.02 0.02,0.03 0,0.01 0,0.02 0,0.03l0 0.01zm-0.04 -0.02c0,-0.01 0,-0.02 -0.01,-0.03 -0.01,0 -0.01,-0.01 -0.02,-0.01 -0.01,0 -0.02,0 -0.02,0 0,0.01 -0.01,0.01 -0.01,0.01 0,0.01 -0.01,0.01 -0.01,0.02 0,0 0,0.01 0,0.01l0.07 0z"/>
  <path id="14" class="fil2" d="M5 0.75c0,0.01 0,0.02 0,0.04 -0.01,0.01 -0.01,0.02 -0.02,0.02 -0.01,0.01 -0.01,0.02 -0.03,0.02 -0.01,0.01 -0.02,0.01 -0.03,0.01 -0.02,0 -0.03,0 -0.04,-0.01 -0.01,0 -0.02,-0.01 -0.03,-0.01 0,-0.01 -0.01,-0.02 -0.01,-0.03 -0.01,-0.01 -0.01,-0.02 -0.01,-0.04 0,-0.01 0,-0.02 0.01,-0.04 0,-0.01 0.01,-0.02 0.01,-0.03 0.01,0 0.02,-0.01 0.03,-0.01 0.01,-0.01 0.03,-0.01 0.04,-0.01 0.01,0 0.03,0 0.04,0.01 0.01,0 0.02,0.01 0.02,0.01 0.01,0.01 0.02,0.02 0.02,0.03 0,0.01 0,0.02 0,0.04zm-0.04 0c0,-0.01 0,-0.02 0,-0.02 -0.01,-0.01 -0.01,-0.01 -0.01,-0.02 0,0 -0.01,-0.01 -0.01,-0.01 -0.01,0 -0.01,0 -0.02,0 -0.01,0 -0.01,0 -0.02,0 0,0 -0.01,0 -0.01,0.01 0,0 -0.01,0.01 -0.01,0.02 0,0 0,0.01 0,0.02 0,0.01 0,0.01 0,0.02 0,0.01 0,0.01 0.01,0.02 0,0 0,0.01 0.01,0.01 0,0 0.01,0 0.02,0 0,0 0.01,0 0.02,0 0,0 0,-0.01 0.01,-0.01 0,0 0,-0.01 0.01,-0.02 0,0 0,-0.01 0,-0.02z"/>
  <path id="15" class="fil2" d="M5.14 0.61c0,0 0,0 0,0.01 0,0 0,0 -0.01,0 0,0 0,0 0,0 0,0 0,0 0,0 0,0 0,0 0,0 0,0 0,0 -0.01,0 0,0 0,0 0,0 0,0 -0.01,0 -0.01,0 0,0 0,0 -0.01,0 0,0 0,0.01 0,0.01 0,0 0,0 -0.01,0.01 0,0 0,0 0,0.01l0 0.01 0.03 0c0,0 0,0 0.01,0 0,0.01 0,0.01 0,0.01 0,0 0,0 0,0 0,0.01 0,0.01 0,0.01 0,0.01 0,0.01 0,0.02 0,0 0,0 -0.01,0l-0.03 0 0 0.13c0,0 0,0 0,0 0,0 0,0 0,0.01 0,0 -0.01,0 -0.01,0 0,0 0,0 -0.01,0 0,0 -0.01,0 -0.01,0 0,0 -0.01,0 -0.01,0 0,-0.01 0,-0.01 0,-0.01 0,0 0,0 0,0l0 -0.13 -0.02 0c0,0 -0.01,0 -0.01,0 0,-0.01 0,-0.01 0,-0.02 0,0 0,0 0,-0.01 0,0 0,0 0,0 0,0 0,0 0.01,-0.01 0,0 0,0 0,0l0.02 0 0 -0.01c0,-0.01 0,-0.02 0,-0.03 0,-0.01 0.01,-0.01 0.01,-0.02 0.01,0 0.01,-0.01 0.02,-0.01 0.01,0 0.01,-0.01 0.02,-0.01 0.01,0 0.01,0 0.02,0.01 0,0 0.01,0 0.01,0 0,0 0,0 0,0 0,0 0,0 0,0 0.01,0.01 0.01,0.01 0.01,0.01 0,0 0,0.01 0,0.01z"/>
  <path id="16" class="fil2" d="M5.37 0.82c0,0 0,0 0,0.01 0,0 0,0 0,0 0,0 0,0 0,0 -0.01,0.01 -0.01,0.01 -0.01,0.01l-0.1 0c-0.01,0 -0.01,-0.01 -0.01,-0.01 -0.01,0 -0.01,0 -0.01,-0.01l0 -0.21c0,0 0,0 0,0 0,0 0.01,0 0.01,-0.01 0,0 0,0 0,0 0.01,0 0.01,0 0.02,0 0,0 0,0 0.01,0 0,0 0,0 0,0 0.01,0.01 0.01,0.01 0.01,0.01 0,0 0,0 0,0l0 0.19 0.07 0c0,0 0,0 0.01,0 0,0 0,0 0,0 0,0 0,0 0,0.01 0,0 0,0 0,0.01z"/>
  <path id="17" class="fil2" d="M5.54 0.75c0,0 0,0 0,0.01 0,0 -0.01,0 -0.01,0l-0.1 0c0,0.01 0,0.01 0,0.02 0.01,0.01 0.01,0.01 0.01,0.01 0,0.01 0.01,0.01 0.01,0.01 0.01,0 0.02,0.01 0.02,0.01 0.01,0 0.02,0 0.03,-0.01 0,0 0.01,0 0.01,0 0.01,0 0.01,0 0.01,0 0,0 0.01,-0.01 0.01,-0.01 0,0 0,0.01 0,0.01 0,0 0,0 0,0 0,0 0,0 0,0 0,0 0,0.01 0,0.01 0,0 0,0 0,0.01 0,0 0,0 0,0 0,0 0,0 0,0 0,0.01 0,0.01 0,0.01 0,0 0,0 -0.01,0 0,0 0,0 -0.01,0 0,0.01 -0.01,0.01 -0.02,0.01 0,0 -0.01,0 -0.02,0 -0.01,0 -0.03,0 -0.04,-0.01 -0.01,0 -0.02,0 -0.02,-0.01 -0.01,-0.01 -0.02,-0.02 -0.02,-0.03 0,-0.01 0,-0.02 0,-0.04 0,-0.01 0,-0.03 0,-0.04 0,-0.01 0.01,-0.02 0.02,-0.03 0,0 0.01,-0.01 0.02,-0.01 0.01,-0.01 0.02,-0.01 0.04,-0.01 0.01,0 0.02,0 0.03,0.01 0.01,0 0.02,0 0.02,0.01 0.01,0.01 0.02,0.02 0.02,0.03 0,0.01 0,0.02 0,0.03l0 0.01zm-0.04 -0.02c0,-0.01 0,-0.02 -0.01,-0.03 0,0 -0.01,-0.01 -0.02,-0.01 -0.01,0 -0.02,0 -0.02,0 0,0.01 -0.01,0.01 -0.01,0.01 0,0.01 0,0.01 -0.01,0.02 0,0 0,0.01 0,0.01l0.07 0z"/>
  <path id="18" class="fil2" d="M5.72 0.83c0,0 0,0 -0.01,0 0,0.01 0,0.01 0,0.01 0,0 -0.01,0 -0.01,0 -0.01,0 -0.01,0 -0.01,0 -0.01,0 -0.01,0 -0.01,-0.01 0,0 0,0 0,0l0 -0.01c-0.01,0 -0.02,0.01 -0.02,0.01 -0.01,0.01 -0.02,0.01 -0.03,0.01 -0.01,0 -0.02,0 -0.03,0 0,-0.01 -0.01,-0.01 -0.01,-0.01 -0.01,-0.01 -0.01,-0.01 -0.02,-0.02 0,-0.01 0,-0.01 0,-0.02 0,-0.01 0,-0.02 0.01,-0.03 0,0 0,-0.01 0.01,-0.01 0.01,-0.01 0.02,-0.01 0.03,-0.01 0.01,-0.01 0.02,-0.01 0.04,-0.01l0.01 0 0 -0.01c0,0 0,-0.01 0,-0.01 0,0 0,-0.01 0,-0.01 -0.01,0 -0.01,0 -0.01,0 -0.01,-0.01 -0.01,-0.01 -0.02,-0.01 -0.01,0 -0.01,0 -0.02,0.01 0,0 -0.01,0 -0.01,0 -0.01,0 -0.01,0.01 -0.02,0.01 0,0 0,0 0,0 0,0 -0.01,0 -0.01,0 0,0 0,0 0,0 0,-0.01 0,-0.01 0,-0.01 0,0 0,-0.01 0,-0.01 0,0 0,0 0,-0.01 0,0 0,0 0,0 0,0 0.01,-0.01 0.01,-0.01 0.01,0 0.01,0 0.02,0 0,-0.01 0.01,-0.01 0.01,-0.01 0.01,0 0.02,0 0.03,0 0.01,0 0.02,0 0.03,0 0.01,0.01 0.01,0.01 0.02,0.01 0.01,0.01 0.01,0.02 0.01,0.02 0,0.01 0.01,0.02 0.01,0.03l0 0.11zm-0.05 -0.07l-0.02 0c0,0 -0.01,0 -0.01,0 -0.01,0 -0.01,0.01 -0.02,0.01 0,0 0,0 0,0.01 -0.01,0 -0.01,0 -0.01,0.01 0,0 0.01,0.01 0.01,0.01 0,0.01 0.01,0.01 0.02,0.01 0,0 0.01,0 0.02,-0.01 0,0 0.01,0 0.01,-0.01l0 -0.03z"/>
  <path id="19" class="fil2" d="M5.86 0.68c0,0.01 0,0.01 0,0.02 0,0 0,0 0,0 0,0 0,0 0,0 0,0.01 0,0.01 0,0.01 0,0 0,0 -0.01,0 0,-0.01 0,-0.01 0,-0.01 0,0 0,0 0,0 -0.01,0 -0.01,0 -0.01,0 0,0 -0.01,0 -0.01,0 0,0 0,0.01 -0.01,0.01 0,0 0,0 0,0.01 -0.01,0 -0.01,0 -0.01,0.01l0 0.1c0,0 0,0 0,0 -0.01,0 -0.01,0 -0.01,0.01 0,0 0,0 -0.01,0 0,0 0,0 -0.01,0 0,0 0,0 -0.01,0 0,0 0,0 0,0 -0.01,-0.01 -0.01,-0.01 -0.01,-0.01 0,0 0,0 0,0l0 -0.16c0,0 0,0 0,0 0,0 0,-0.01 0.01,-0.01 0,0 0,0 0,0 0,0 0.01,0 0.01,0 0,0 0.01,0 0.01,0 0,0 0,0 0.01,0 0,0 0,0.01 0,0.01 0,0 0,0 0,0l0 0.02c0,-0.01 0.01,-0.01 0.01,-0.02 0.01,0 0.01,0 0.01,0 0.01,-0.01 0.01,-0.01 0.01,-0.01 0.01,0 0.01,0 0.01,0 0,0 0.01,0 0.01,0 0,0 0,0 0,0 0,0 0.01,0 0.01,0 0,0 0,0 0,0 0,0 0,0.01 0,0.01 0,0 0,0 0,0 0,0 0,0 0,0 0,0.01 0,0.01 0,0.01z"/>
  <path id="20" class="fil2" d="M6.04 0.83c0,0 0,0 0,0 0,0 0,0 0,0.01 0,0 0,0 -0.01,0 0,0 0,0 -0.01,0 0,0 -0.01,0 -0.01,0 0,0 0,0 -0.01,0 0,-0.01 0,-0.01 0,-0.01 0,0 0,0 0,0l0 -0.09c0,-0.01 0,-0.02 0,-0.02 0,0 0,-0.01 -0.01,-0.01 0,0 0,-0.01 -0.01,-0.01 0,0 0,0 -0.01,0 0,0 -0.01,0 -0.01,0.01 -0.01,0 -0.02,0.01 -0.02,0.01l0 0.11c0,0 0,0 0,0 0,0 -0.01,0 -0.01,0.01 0,0 0,0 0,0 -0.01,0 -0.01,0 -0.02,0 0,0 0,0 -0.01,0 0,0 0,0 0,0 -0.01,-0.01 -0.01,-0.01 -0.01,-0.01 0,0 0,0 0,0l0 -0.16c0,0 0,0 0,0 0,0 0,-0.01 0.01,-0.01 0,0 0,0 0,0 0,0 0.01,0 0.01,0 0.01,0 0.01,0 0.01,0 0,0 0.01,0 0.01,0 0,0 0,0.01 0,0.01 0,0 0,0 0,0l0 0.02c0.01,-0.01 0.02,-0.02 0.03,-0.02 0.01,-0.01 0.02,-0.01 0.03,-0.01 0.01,0 0.02,0 0.02,0 0.01,0.01 0.02,0.01 0.02,0.02 0.01,0.01 0.01,0.01 0.01,0.02 0,0.01 0,0.02 0,0.03l0 0.1z"/>
  <path id="21" class="fil2" d="M6.13 0.83c0,0 0,0 0,0 0,0 0,0 0,0.01 0,0 0,0 -0.01,0 0,0 0,0 -0.01,0 0,0 -0.01,0 -0.01,0 0,0 0,0 -0.01,0 0,-0.01 0,-0.01 0,-0.01 0,0 0,0 0,0l0 -0.16c0,0 0,0 0,0 0,0 0,0 0,-0.01 0.01,0 0.01,0 0.01,0 0,0 0.01,0 0.01,0 0.01,0 0.01,0 0.01,0 0.01,0 0.01,0 0.01,0 0,0.01 0,0.01 0,0.01 0,0 0,0 0,0l0 0.16zm0.01 -0.21c0,0 0,0.01 -0.01,0.01 0,0.01 -0.01,0.01 -0.02,0.01 -0.01,0 -0.02,0 -0.02,-0.01 0,0 0,-0.01 0,-0.01 0,-0.01 0,-0.02 0,-0.02 0,-0.01 0.01,-0.01 0.02,-0.01 0.01,0 0.02,0 0.02,0.01 0.01,0 0.01,0.01 0.01,0.02z"/>
  <path id="22" class="fil2" d="M6.33 0.83c0,0 0,0 0,0 0,0 0,0 0,0.01 0,0 -0.01,0 -0.01,0 0,0 -0.01,0 -0.01,0 0,0 -0.01,0 -0.01,0 0,0 -0.01,0 -0.01,0 0,-0.01 0,-0.01 0,-0.01 0,0 0,0 0,0l0 -0.09c0,-0.01 0,-0.02 0,-0.02 -0.01,0 -0.01,-0.01 -0.01,-0.01 0,0 0,-0.01 -0.01,-0.01 0,0 -0.01,0 -0.01,0 -0.01,0 -0.01,0 -0.02,0.01 0,0 -0.01,0.01 -0.02,0.01l0 0.11c0,0 0,0 0,0 0,0 0,0 0,0.01 0,0 0,0 -0.01,0 0,0 0,0 -0.01,0 0,0 -0.01,0 -0.01,0 0,0 0,0 -0.01,0 0,-0.01 0,-0.01 0,-0.01 0,0 0,0 0,0l0 -0.16c0,0 0,0 0,0 0,0 0,-0.01 0,-0.01 0.01,0 0.01,0 0.01,0 0,0 0.01,0 0.01,0 0,0 0.01,0 0.01,0 0,0 0,0 0,0 0.01,0 0.01,0.01 0.01,0.01 0,0 0,0 0,0l0 0.02c0.01,-0.01 0.02,-0.02 0.03,-0.02 0,-0.01 0.01,-0.01 0.02,-0.01 0.01,0 0.02,0 0.03,0 0.01,0.01 0.01,0.01 0.02,0.02 0,0.01 0.01,0.01 0.01,0.02 0,0.01 0,0.02 0,0.03l0 0.1z"/>
  <path id="23" class="fil2" d="M6.52 0.68c0,0.01 0,0.01 0,0.01 0,0.01 0,0.01 -0.01,0.01l-0.01 0c0,0 0,0 0,0.01 0,0 0,0.01 0,0.01 0,0.01 0,0.02 0,0.02 -0.01,0.01 -0.01,0.02 -0.02,0.02 0,0.01 -0.01,0.01 -0.02,0.01 0,0.01 -0.01,0.01 -0.02,0.01 -0.01,0 -0.01,0 -0.02,0 0,-0.01 -0.01,-0.01 -0.01,-0.01 0,0 0,0 0,0.01 0,0 0,0 0,0 0,0.01 0,0.01 0,0.01 0,0 0.01,0.01 0.01,0.01l0.04 0c0.01,0 0.02,0 0.03,0 0,0 0.01,0.01 0.01,0.01 0.01,0 0.01,0.01 0.01,0.02 0.01,0 0.01,0.01 0.01,0.01 0,0.01 0,0.02 -0.01,0.03 0,0 -0.01,0.01 -0.01,0.01 -0.01,0.01 -0.02,0.01 -0.03,0.02 -0.01,0 -0.02,0 -0.03,0 -0.02,0 -0.03,0 -0.04,0 -0.01,0 -0.02,-0.01 -0.02,-0.01 -0.01,0 -0.01,-0.01 -0.02,-0.01 0,-0.01 0,-0.02 0,-0.02 0,-0.01 0,-0.01 0,-0.01 0,-0.01 0,-0.01 0,-0.01 0.01,-0.01 0.01,-0.01 0.01,-0.01 0.01,-0.01 0.01,-0.01 0.01,-0.01 0,0 -0.01,-0.01 -0.01,-0.01 0,-0.01 0,-0.01 0,-0.02 0,-0.01 0,-0.01 0,-0.02 0,0 0.01,-0.01 0.01,-0.01 0,-0.01 0,-0.01 -0.01,-0.02 0,0 0,-0.01 0,-0.02 0,-0.01 0,-0.02 0,-0.03 0.01,0 0.01,-0.01 0.02,-0.01 0,-0.01 0.01,-0.01 0.02,-0.02 0.01,0 0.02,0 0.03,0 0,0 0.01,0 0.01,0 0.01,0 0.01,0 0.01,0l0.05 0c0.01,0 0.01,0 0.01,0.01 0,0 0,0 0,0.01zm-0.06 0.04c0,-0.01 0,-0.02 0,-0.02 -0.01,-0.01 -0.02,-0.01 -0.02,-0.01 -0.01,0 -0.01,0 -0.02,0 0,0.01 0,0.01 0,0.01 -0.01,0 -0.01,0.01 -0.01,0.01 0,0 0,0.01 0,0.01 0,0.01 0,0.01 0.01,0.02 0,0 0.01,0.01 0.02,0.01 0,0 0,0 0.01,-0.01 0,0 0,0 0.01,0 0,0 0,-0.01 0,-0.01 0,0 0,-0.01 0,-0.01zm0.01 0.13c0,-0.01 0,-0.01 0,-0.02 -0.01,0 -0.01,0 -0.02,0l-0.03 0c-0.01,0 -0.01,0 -0.01,0.01 0,0 0,0 0,0 -0.01,0 -0.01,0 -0.01,0.01 0,0 0,0 0,0 0,0.01 0.01,0.01 0.01,0.02 0.01,0 0.02,0 0.03,0 0,0 0.01,0 0.01,0 0.01,0 0.01,0 0.02,-0.01 0,0 0,0 0,0 0,-0.01 0,-0.01 0,-0.01z"/>
  <path class="fil3" d="M2.8 1.27c0,0 0,0 0,0 0,0 0,0.01 0,0.01 0,0 0,0 0,0 0,0 0,0 0,0 -0.01,0 -0.01,0 -0.01,0 -0.01,-0.01 -0.01,-0.01 -0.02,-0.01 -0.01,-0.01 -0.01,-0.01 -0.02,-0.01 -0.01,0 -0.02,0 -0.04,0 -0.01,0 -0.02,0 -0.04,0 -0.01,0.01 -0.02,0.02 -0.03,0.03 -0.01,0.01 -0.01,0.02 -0.02,0.03 0,0.02 0,0.03 0,0.05 0,0.01 0,0.03 0,0.04 0.01,0.02 0.01,0.03 0.02,0.04 0.01,0.01 0.02,0.02 0.03,0.02 0.02,0 0.03,0.01 0.04,0.01 0.01,0 0.02,0 0.03,-0.01 0.01,0 0.02,0 0.03,-0.01l0 -0.08 -0.07 0c0,0 0,0 0,0 -0.01,0 -0.01,-0.01 -0.01,-0.01 0,0 0,-0.01 0,-0.01 0,0 0.01,0 0.01,0 0,0 0,-0.01 0,-0.01 0,0 0,0 0,0l0.09 0c0,0 0,0 0,0 0.01,0 0.01,0.01 0.01,0.01 0,0 0,0 0,0 0,0 0,0.01 0,0.01l0 0.1c0,0.01 0,0.01 0,0.01 0,0.01 0,0.01 -0.01,0.01 0,0 -0.01,0.01 -0.01,0.01 -0.01,0 -0.02,0 -0.02,0 -0.01,0.01 -0.02,0.01 -0.03,0.01 0,0 -0.01,0 -0.02,0 -0.02,0 -0.04,0 -0.05,-0.01 -0.02,-0.01 -0.04,-0.02 -0.05,-0.03 -0.01,-0.01 -0.02,-0.03 -0.02,-0.04 -0.01,-0.02 -0.01,-0.04 -0.01,-0.06 0,-0.02 0,-0.04 0.01,-0.06 0,-0.02 0.01,-0.03 0.03,-0.05 0.01,-0.01 0.02,-0.02 0.04,-0.03 0.02,0 0.03,-0.01 0.06,-0.01 0.01,0 0.02,0 0.02,0.01 0.01,0 0.02,0 0.03,0 0.01,0.01 0.01,0.01 0.02,0.01 0,0 0.01,0.01 0.01,0.01 0,0 0,0 0,0 0,0.01 0,0.01 0,0.02z"/>
  <path id="1" class="fil3" d="M3.03 1.39c0,0.01 0,0.01 0,0.02 0,0 -0.01,0 -0.01,0l-0.13 0c0,0.01 0,0.02 0.01,0.03 0,0.01 0,0.02 0.01,0.02 0,0.01 0.01,0.01 0.02,0.02 0,0 0.01,0 0.02,0 0.01,0 0.02,0 0.03,0 0.01,0 0.01,0 0.02,-0.01 0,0 0.01,0 0.01,0 0,0 0.01,0 0.01,0 0,0 0,0 0,0 0,0 0,0 0,0 0,0 0,0 0,0 0,0.01 0,0.01 0,0.01 0,0 0,0 0,0 0,0.01 0,0.01 0,0.01 0,0 0,0 0,0 0,0 0,0 0,0 0,0 0,0.01 -0.01,0.01 0,0 -0.01,0 -0.01,0 -0.01,0 -0.01,0.01 -0.02,0.01 -0.01,0 -0.02,0 -0.03,0 -0.01,0 -0.03,0 -0.04,-0.01 -0.01,0 -0.02,-0.01 -0.03,-0.02 -0.01,-0.01 -0.01,-0.02 -0.02,-0.03 0,-0.01 -0.01,-0.03 -0.01,-0.05 0,-0.01 0.01,-0.03 0.01,-0.04 0.01,-0.01 0.01,-0.03 0.02,-0.03 0.01,-0.01 0.02,-0.02 0.03,-0.03 0.01,0 0.02,0 0.04,0 0.01,0 0.03,0 0.04,0 0.01,0.01 0.02,0.02 0.02,0.02 0.01,0.01 0.01,0.02 0.02,0.03 0,0.01 0,0.03 0,0.04l0 0zm-0.03 -0.01c0,-0.01 -0.01,-0.03 -0.02,-0.04 0,-0.01 -0.02,-0.02 -0.03,-0.02 -0.01,0 -0.02,0.01 -0.03,0.01 0,0 -0.01,0.01 -0.01,0.01 -0.01,0.01 -0.01,0.01 -0.01,0.02 -0.01,0.01 -0.01,0.02 -0.01,0.02l0.11 0z"/>
  <path id="2" class="fil3" d="M3.18 1.49c0,0 0,0 0,0.01 0,0 0,0 0,0 0,0 0,0 0,0 -0.01,0.01 -0.01,0.01 -0.01,0.01 0,0 -0.01,0 -0.01,0 0,0 -0.01,0 -0.01,0 -0.01,0 -0.02,0 -0.03,-0.01 0,0 -0.01,0 -0.01,-0.01 -0.01,0 -0.01,-0.01 -0.01,-0.02 -0.01,-0.01 -0.01,-0.02 -0.01,-0.03l0 -0.11 -0.02 0c-0.01,0 -0.01,0 -0.01,0 0,-0.01 0,-0.01 0,-0.01 0,-0.01 0,-0.01 0,-0.01 0,0 0,0 0,-0.01 0,0 0,0 0,0 0,0 0,0 0.01,0l0.02 0 0 -0.04c0,-0.01 0,-0.01 0,-0.01 0,0 0.01,0 0.01,0 0,0 0,0 0,0 0,0 0.01,0 0.01,0 0,0 0.01,0 0.01,0 0,0 0,0 0,0 0.01,0 0.01,0 0.01,0 0,0 0,0 0,0.01l0 0.04 0.05 0c0,0 0,0 0,0 0,0 0,0 0,0 0,0.01 0,0.01 0,0.01 0,0 0,0 0,0.01 0,0 0,0 0,0.01 0,0 0,0 0,0l-0.05 0 0 0.11c0,0.01 0,0.02 0,0.03 0.01,0.01 0.02,0.01 0.03,0.01 0,0 0,0 0,0 0.01,0 0.01,0 0.01,0 0,-0.01 0,-0.01 0.01,-0.01 0,0 0,0 0,0 0,0 0,0 0,0 0,0 0,0 0,0.01 0,0 0,0 0,0 0,0 0,0 0,0.01z"/>
  <path id="3" class="fil3" d="M3.54 1.49c0,0.01 0.01,0.01 0.01,0.01 0,0 -0.01,0 -0.01,0 0,0.01 0,0.01 0,0.01 0,0 -0.01,0 -0.01,0 -0.01,0 -0.01,0 -0.01,0 -0.01,0 -0.01,0 -0.01,0 0,-0.01 0,-0.01 0,-0.01 0,0 0,0 0,0l-0.03 -0.07 -0.11 0 -0.03 0.07c0,0 0,0 0,0 0,0 0,0 0,0 0,0.01 0,0.01 -0.01,0.01 0,0 0,0 -0.01,0 0,0 0,0 -0.01,0 0,0 0,0 0,-0.01 0,0 0,0 0,0 0,0 0,0 0,-0.01l0.09 -0.26c0,0 0,0 0,0 0,0 0.01,0 0.01,0 0,0 0,0 0,0 0.01,0 0.01,0 0.02,0 0,0 0,0 0.01,0 0,0 0,0 0,0 0.01,0 0.01,0 0.01,0 0,0 0,0 0,0l0.09 0.26zm-0.12 -0.23l0 0 -0.04 0.14 0.09 0 -0.05 -0.14z"/>
  <path id="4" class="fil3" d="M3.75 1.5c0,0 0,0 0,0 0,0 0,0 0,0.01 0,0 0,0 -0.01,0 0,0 0,0 0,0 -0.01,0 -0.01,0 -0.01,0 0,0 -0.01,0 -0.01,0 0,-0.01 0,-0.01 0,-0.01 0,0 0,0 0,0l0 -0.03c-0.01,0.02 -0.02,0.02 -0.03,0.03 -0.01,0.01 -0.02,0.01 -0.04,0.01 -0.01,0 -0.02,0 -0.03,-0.01 -0.01,0 -0.02,-0.01 -0.03,-0.02 0,-0.01 -0.01,-0.02 -0.01,-0.03 0,-0.02 -0.01,-0.03 -0.01,-0.04 0,-0.02 0.01,-0.04 0.01,-0.05 0,-0.01 0.01,-0.02 0.01,-0.03 0.01,-0.01 0.02,-0.02 0.03,-0.03 0.01,0 0.02,0 0.04,0 0.01,0 0.02,0 0.03,0 0.01,0.01 0.02,0.02 0.03,0.03l0 -0.12c0,0 0,0 0,0 0,0 0,0 0,0 0,0 0,0 0,0 0.01,0 0.01,0 0.01,0 0.01,0 0.01,0 0.01,0 0,0 0.01,0 0.01,0 0,0 0,0 0,0 0,0 0,0 0,0l0 0.29zm-0.03 -0.14c-0.01,-0.01 -0.02,-0.02 -0.03,-0.02 -0.01,-0.01 -0.02,-0.01 -0.03,-0.01 -0.01,0 -0.02,0 -0.02,0 -0.01,0.01 -0.01,0.01 -0.02,0.02 0,0.01 0,0.02 -0.01,0.02 0,0.01 0,0.02 0,0.03 0,0.01 0,0.02 0,0.03 0,0.01 0.01,0.02 0.01,0.02 0,0.01 0.01,0.02 0.02,0.02 0,0.01 0.01,0.01 0.02,0.01 0,0 0.01,0 0.01,0 0.01,0 0.01,-0.01 0.02,-0.01 0,0 0,-0.01 0.01,-0.01 0,-0.01 0.01,-0.01 0.02,-0.02l0 -0.08z"/>
  <path id="5" class="fil3" d="M4.1 1.5c0,0 0,0 0,0 0,0 0,0 0,0.01 0,0 0,0 -0.01,0 0,0 0,0 0,0 -0.01,0 -0.01,0 -0.01,0 0,0 -0.01,0 -0.01,0 0,-0.01 0,-0.01 0,-0.01 0,0 0,0 0,0l0 -0.12c0,-0.01 0,-0.01 0,-0.02 -0.01,-0.01 -0.01,-0.01 -0.01,-0.02 0,0 -0.01,-0.01 -0.01,-0.01 -0.01,0 -0.01,0 -0.02,0 -0.01,0 -0.02,0 -0.02,0.01 -0.01,0 -0.02,0.01 -0.03,0.02l0 0.14c0,0 0,0 0,0 0,0 0,0 -0.01,0.01 0,0 0,0 0,0 0,0 -0.01,0 -0.01,0 0,0 -0.01,0 -0.01,0 0,0 0,0 0,0 0,-0.01 -0.01,-0.01 -0.01,-0.01 0,0 0,0 0,0l0 -0.12c0,-0.01 0,-0.01 0,-0.02 0,-0.01 0,-0.01 -0.01,-0.02 0,0 0,-0.01 -0.01,-0.01 0,0 -0.01,0 -0.02,0 0,0 -0.01,0 -0.02,0.01 -0.01,0 -0.02,0.01 -0.03,0.02l0 0.14c0,0 0,0 0,0 0,0 0,0 0,0.01 0,0 0,0 -0.01,0 0,0 0,0 -0.01,0 0,0 0,0 0,0 -0.01,0 -0.01,0 -0.01,0 0,-0.01 0,-0.01 0,-0.01 0,0 0,0 0,0l0 -0.19c0,0 0,-0.01 0,-0.01 0,0 0,0 0,0 0,0 0,0 0.01,0 0,0 0,0 0,0 0.01,0 0.01,0 0.01,0 0,0 0,0 0.01,0 0,0 0,0 0,0 0,0 0,0.01 0,0.01l0 0.02c0.01,-0.01 0.02,-0.02 0.03,-0.02 0.01,-0.01 0.02,-0.01 0.03,-0.01 0.01,0 0.02,0 0.02,0 0.01,0 0.02,0 0.02,0.01 0.01,0 0.01,0 0.01,0.01 0.01,0 0.01,0.01 0.01,0.02 0.01,-0.01 0.01,-0.02 0.02,-0.02 0.01,-0.01 0.01,-0.01 0.02,-0.01 0,-0.01 0.01,-0.01 0.01,-0.01 0.01,0 0.01,0 0.02,0 0.01,0 0.02,0 0.03,0 0.01,0.01 0.01,0.01 0.02,0.02 0,0.01 0.01,0.02 0.01,0.03 0,0.01 0,0.02 0,0.03l0 0.12z"/>
  <path id="6" class="fil3" d="M4.2 1.5c0,0 0,0 0,0 0,0 0,0 0,0.01 0,0 0,0 0,0 -0.01,0 -0.01,0 -0.01,0 -0.01,0 -0.01,0 -0.01,0 0,0 -0.01,0 -0.01,0 0,-0.01 0,-0.01 0,-0.01 0,0 0,0 0,0l0 -0.19c0,0 0,-0.01 0,-0.01 0,0 0,0 0,0 0,0 0.01,0 0.01,0 0,0 0,0 0.01,0 0,0 0,0 0.01,0 0,0 0,0 0,0 0,0 0,0 0,0 0,0 0,0.01 0,0.01l0 0.19zm0.01 -0.26c0,0.01 0,0.02 -0.01,0.02 0,0 -0.01,0 -0.01,0 -0.01,0 -0.02,0 -0.02,0 0,0 -0.01,-0.01 -0.01,-0.02 0,-0.01 0.01,-0.01 0.01,-0.02 0,0 0.01,0 0.02,0 0,0 0.01,0 0.01,0 0.01,0.01 0.01,0.01 0.01,0.02z"/>
  <path id="7" class="fil3" d="M4.39 1.45c0,0.01 0,0.02 0,0.02 -0.01,0.01 -0.01,0.02 -0.02,0.02 -0.01,0.01 -0.01,0.01 -0.02,0.02 -0.01,0 -0.02,0 -0.03,0 -0.01,0 -0.02,0 -0.02,0 -0.01,0 -0.02,0 -0.02,-0.01 -0.01,0 -0.01,0 -0.01,0 -0.01,0 -0.01,0 -0.01,-0.01 0,0 0,0 0,0 -0.01,0 -0.01,-0.01 -0.01,-0.01 0,-0.01 0,-0.01 0,-0.01 0,0 0.01,0 0.01,0 0,-0.01 0,-0.01 0,-0.01 0,0 0,0 0,0 0,0 0,0 0.01,0.01 0,0 0,0 0.01,0 0,0 0.01,0.01 0.01,0.01 0.01,0 0.02,0 0.03,0 0,0 0.01,0 0.01,0 0.01,0 0.01,0 0.01,-0.01 0.01,0 0.01,0 0.01,-0.01 0,0 0.01,0 0.01,-0.01 0,-0.01 -0.01,-0.01 -0.01,-0.01 0,-0.01 0,-0.01 -0.01,-0.01 0,-0.01 -0.01,-0.01 -0.01,-0.01 -0.01,0 -0.02,-0.01 -0.02,-0.01 -0.01,0 -0.01,0 -0.02,-0.01 -0.01,0 -0.01,0 -0.02,-0.01 0,0 0,-0.01 -0.01,-0.01 0,-0.01 0,-0.02 0,-0.03 0,0 0,-0.01 0,-0.02 0.01,0 0.01,-0.01 0.02,-0.02 0,0 0.01,-0.01 0.02,-0.01 0.01,0 0.02,0 0.03,0 0,0 0.01,0 0.02,0 0,0 0,0 0.01,0 0,0 0.01,0 0.01,0.01 0,0 0,0 0.01,0 0,0 0,0 0,0 0,0 0,0 0,0.01 0,0 0,0 0,0 0,0 0,0 0,0.01 0,0 0,0 0,0 0,0 0,0.01 0,0.01 0,0 0,0 0,0 0,0 0,0 0,0 -0.01,0 -0.01,0 -0.01,0 0,0 -0.01,-0.01 -0.01,-0.01 0,0 -0.01,0 -0.01,0 -0.01,0 -0.01,-0.01 -0.02,-0.01 -0.01,0 -0.01,0.01 -0.02,0.01 0,0 -0.01,0 -0.01,0 0,0 0,0.01 0,0.01 -0.01,0 -0.01,0.01 -0.01,0.01 0,0.01 0,0.01 0.01,0.02 0,0 0,0 0.01,0.01 0,0 0.01,0 0.01,0 0.01,0.01 0.02,0.01 0.02,0.01 0.01,0 0.01,0.01 0.02,0.01 0.01,0 0.01,0.01 0.02,0.01 0,0 0,0.01 0.01,0.02 0,0 0,0.01 0,0.02z"/>
  <path id="8" class="fil3" d="M4.56 1.45c0,0.01 0,0.02 0,0.02 -0.01,0.01 -0.01,0.02 -0.02,0.02 0,0.01 -0.01,0.01 -0.02,0.02 -0.01,0 -0.02,0 -0.03,0 -0.01,0 -0.02,0 -0.02,0 -0.01,0 -0.01,0 -0.02,-0.01 0,0 -0.01,0 -0.01,0 -0.01,0 -0.01,0 -0.01,-0.01 0,0 0,0 0,0 0,0 0,-0.01 0,-0.01 0,-0.01 0,-0.01 0,-0.01 0,0 0,0 0,0 0,-0.01 0,-0.01 0,-0.01 0,0 0,0 0,0 0,0 0.01,0 0.01,0.01 0,0 0.01,0 0.01,0 0.01,0 0.01,0.01 0.02,0.01 0,0 0.01,0 0.02,0 0,0 0.01,0 0.01,0 0.01,0 0.01,0 0.02,-0.01 0,0 0,0 0.01,-0.01 0,0 0,0 0,-0.01 0,-0.01 0,-0.01 -0.01,-0.01 0,-0.01 0,-0.01 -0.01,-0.01 0,-0.01 -0.01,-0.01 -0.01,-0.01 -0.01,0 -0.01,-0.01 -0.02,-0.01 -0.01,0 -0.01,0 -0.02,-0.01 0,0 -0.01,0 -0.01,-0.01 -0.01,0 -0.01,-0.01 -0.01,-0.01 -0.01,-0.01 -0.01,-0.02 -0.01,-0.03 0,0 0,-0.01 0.01,-0.02 0,0 0,-0.01 0.01,-0.02 0,0 0.01,-0.01 0.02,-0.01 0.01,0 0.02,0 0.03,0 0.01,0 0.01,0 0.02,0 0,0 0.01,0 0.01,0 0.01,0 0.01,0 0.01,0.01 0,0 0.01,0 0.01,0 0,0 0,0 0,0 0,0 0,0 0,0.01 0,0 0,0 0,0 0,0 0,0 0,0.01 0,0 0,0 0,0 0,0 0,0.01 0,0.01 0,0 0,0 0,0 0,0 0,0 0,0 0,0 -0.01,0 -0.01,0 0,0 0,-0.01 -0.01,-0.01 0,0 -0.01,0 -0.01,0 -0.01,0 -0.01,-0.01 -0.02,-0.01 0,0 -0.01,0.01 -0.01,0.01 -0.01,0 -0.01,0 -0.02,0 0,0 0,0.01 0,0.01 0,0 -0.01,0.01 -0.01,0.01 0,0.01 0.01,0.01 0.01,0.02 0,0 0.01,0 0.01,0.01 0,0 0.01,0 0.02,0 0,0.01 0.01,0.01 0.01,0.01 0.01,0 0.02,0.01 0.02,0.01 0.01,0 0.01,0.01 0.02,0.01 0,0 0.01,0.01 0.01,0.02 0,0 0,0.01 0,0.02z"/>
  <path id="9" class="fil3" d="M4.65 1.5c0,0 0,0 0,0 0,0 0,0 0,0.01 -0.01,0 -0.01,0 -0.01,0 0,0 0,0 -0.01,0 0,0 0,0 -0.01,0 0,0 0,0 0,0 0,-0.01 0,-0.01 -0.01,-0.01 0,0 0,0 0,0l0 -0.19c0,0 0,-0.01 0,-0.01 0.01,0 0.01,0 0.01,0 0,0 0,0 0,0 0.01,0 0.01,0 0.01,0 0.01,0 0.01,0 0.01,0 0,0 0,0 0.01,0 0,0 0,0 0,0 0,0 0,0.01 0,0.01l0 0.19zm0 -0.26c0,0.01 0,0.02 0,0.02 0,0 -0.01,0 -0.02,0 -0.01,0 -0.01,0 -0.02,0 0,0 0,-0.01 0,-0.02 0,-0.01 0,-0.01 0,-0.02 0.01,0 0.01,0 0.02,0 0.01,0 0.02,0 0.02,0 0,0.01 0,0.01 0,0.02z"/>
  <path id="10" class="fil3" d="M4.89 1.4c0,0.02 0,0.03 0,0.04 -0.01,0.02 -0.01,0.03 -0.02,0.04 -0.01,0.01 -0.02,0.02 -0.03,0.02 -0.01,0.01 -0.03,0.01 -0.04,0.01 -0.02,0 -0.03,0 -0.05,-0.01 -0.01,0 -0.02,-0.01 -0.03,-0.02 0,-0.01 -0.01,-0.02 -0.01,-0.03 -0.01,-0.01 -0.01,-0.03 -0.01,-0.05 0,-0.01 0,-0.03 0.01,-0.04 0,-0.01 0.01,-0.02 0.02,-0.03 0,-0.01 0.01,-0.02 0.03,-0.03 0.01,0 0.02,0 0.04,0 0.02,0 0.03,0 0.04,0 0.01,0.01 0.02,0.02 0.03,0.02 0.01,0.01 0.01,0.02 0.02,0.04 0,0.01 0,0.02 0,0.04zm-0.03 0c0,-0.01 0,-0.02 -0.01,-0.03 0,-0.01 0,-0.01 -0.01,-0.02 0,-0.01 -0.01,-0.01 -0.01,-0.02 -0.01,0 -0.02,0 -0.03,0 -0.01,0 -0.02,0 -0.03,0 -0.01,0.01 -0.01,0.01 -0.02,0.02 0,0 -0.01,0.01 -0.01,0.02 0,0.01 0,0.02 0,0.03 0,0.01 0,0.02 0,0.03 0,0.01 0.01,0.02 0.01,0.03 0.01,0 0.01,0.01 0.02,0.01 0.01,0.01 0.02,0.01 0.03,0.01 0.01,0 0.02,0 0.02,-0.01 0.01,0 0.02,-0.01 0.02,-0.01 0.01,-0.01 0.01,-0.02 0.01,-0.03 0.01,-0.01 0.01,-0.02 0.01,-0.03z"/>
  <path id="11" class="fil3" d="M5.11 1.5c0,0 0,0 0,0 0,0 0,0 0,0.01 0,0 0,0 -0.01,0 0,0 0,0 0,0 -0.01,0 -0.01,0 -0.01,0 -0.01,0 -0.01,0 -0.01,0 0,-0.01 0,-0.01 0,-0.01 0,0 0,0 0,0l0 -0.11c0,-0.01 0,-0.02 -0.01,-0.03 0,-0.01 0,-0.01 0,-0.02 -0.01,0 -0.01,-0.01 -0.02,-0.01 0,0 -0.01,0 -0.01,0 -0.01,0 -0.02,0 -0.03,0.01 -0.01,0 -0.02,0.01 -0.03,0.02l0 0.14c0,0 0,0 0,0 0,0 0,0 0,0.01 0,0 0,0 -0.01,0 0,0 0,0 -0.01,0 0,0 0,0 0,0 -0.01,0 -0.01,0 -0.01,0 0,-0.01 0,-0.01 0,-0.01 0,0 0,0 0,0l0 -0.19c0,0 0,-0.01 0,-0.01 0,0 0,0 0,0 0,0 0,0 0,0 0.01,0 0.01,0 0.01,0 0.01,0 0.01,0 0.01,0 0,0 0,0 0.01,0 0,0 0,0 0,0 0,0 0,0.01 0,0.01l0 0.02c0.01,-0.01 0.02,-0.02 0.03,-0.02 0.01,-0.01 0.02,-0.01 0.03,-0.01 0.02,0 0.03,0 0.04,0 0.01,0.01 0.01,0.01 0.02,0.02 0,0.01 0.01,0.02 0.01,0.03 0,0.01 0,0.02 0,0.03l0 0.12z"/>
  <path id="12" class="fil3" d="M5.46 1.24c0,0.01 0,0.01 0,0.01 -0.01,0 -0.01,0 -0.01,0.01 0,0 0,0 0,0 0,0 0,0 0,0l-0.08 0 0 0.24c0,0 0,0 0,0 0,0 0,0 0,0 -0.01,0.01 -0.01,0.01 -0.01,0.01 0,0 0,0 -0.01,0 0,0 0,0 -0.01,0 0,0 0,0 0,-0.01 0,0 -0.01,0 -0.01,0 0,0 0,0 0,0l0 -0.24 -0.07 0c-0.01,0 -0.01,0 -0.01,0 0,0 0,0 0,0 0,-0.01 0,-0.01 0,-0.01 0,0 0,0 0,-0.01 0,0 0,0 0,0 0,-0.01 0,-0.01 0,-0.01 0,0 0,0 0,0 0,0 0,0 0.01,0l0.19 0c0,0 0,0 0,0 0,0 0,0 0,0 0,0 0,0 0.01,0.01 0,0 0,0 0,0z"/>
  <path id="13" class="fil3" d="M5.63 1.4c0,0.02 0,0.03 0,0.04 -0.01,0.02 -0.01,0.03 -0.02,0.04 -0.01,0.01 -0.02,0.02 -0.03,0.02 -0.02,0.01 -0.03,0.01 -0.05,0.01 -0.01,0 -0.03,0 -0.04,-0.01 -0.01,0 -0.02,-0.01 -0.03,-0.02 -0.01,-0.01 -0.01,-0.02 -0.02,-0.03 0,-0.01 0,-0.03 0,-0.05 0,-0.01 0,-0.03 0.01,-0.04 0,-0.01 0.01,-0.02 0.01,-0.03 0.01,-0.01 0.02,-0.02 0.03,-0.03 0.02,0 0.03,0 0.05,0 0.01,0 0.03,0 0.04,0 0.01,0.01 0.02,0.02 0.03,0.02 0.01,0.01 0.01,0.02 0.02,0.04 0,0.01 0,0.02 0,0.04zm-0.03 0c0,-0.01 -0.01,-0.02 -0.01,-0.03 0,-0.01 0,-0.01 -0.01,-0.02 0,-0.01 -0.01,-0.01 -0.02,-0.02 0,0 -0.01,0 -0.02,0 -0.01,0 -0.02,0 -0.03,0 -0.01,0.01 -0.01,0.01 -0.02,0.02 0,0 -0.01,0.01 -0.01,0.02 0,0.01 0,0.02 0,0.03 0,0.01 0,0.02 0,0.03 0,0.01 0,0.02 0.01,0.03 0,0 0.01,0.01 0.02,0.01 0,0.01 0.01,0.01 0.03,0.01 0.01,0 0.01,0 0.02,-0.01 0.01,0 0.02,-0.01 0.02,-0.01 0.01,-0.01 0.01,-0.02 0.01,-0.03 0,-0.01 0.01,-0.02 0.01,-0.03z"/>
  <path id="14" class="fil3" d="M5.85 1.5c0,0 0,0 0,0 0,0 0,0 0,0.01 0,0 -0.01,0 -0.01,0 0,0 0,0 -0.01,0 0,0 0,0 0,0 0,0 -0.01,0 -0.01,0 0,-0.01 0,-0.01 0,-0.01 0,0 0,0 0,0l0 -0.03c-0.01,0.02 -0.02,0.02 -0.03,0.03 -0.01,0.01 -0.03,0.01 -0.04,0.01 -0.01,0 -0.03,0 -0.04,-0.01 -0.01,0 -0.01,-0.01 -0.02,-0.02 -0.01,-0.01 -0.01,-0.02 -0.01,-0.03 -0.01,-0.02 -0.01,-0.03 -0.01,-0.04 0,-0.02 0,-0.04 0.01,-0.05 0,-0.01 0.01,-0.02 0.01,-0.03 0.01,-0.01 0.02,-0.02 0.03,-0.03 0.01,0 0.02,0 0.04,0 0.01,0 0.02,0 0.03,0 0.01,0.01 0.02,0.02 0.02,0.03l0 -0.12c0,0 0,0 0.01,0 0,0 0,0 0,0 0,0 0,0 0,0 0.01,0 0.01,0 0.01,0 0.01,0 0.01,0 0.01,0 0,0 0,0 0.01,0 0,0 0,0 0,0 0,0 0,0 0,0l0 0.29zm-0.04 -0.14c-0.01,-0.01 -0.01,-0.02 -0.02,-0.02 -0.01,-0.01 -0.02,-0.01 -0.03,-0.01 -0.01,0 -0.02,0 -0.02,0 -0.01,0.01 -0.02,0.01 -0.02,0.02 0,0.01 -0.01,0.02 -0.01,0.02 0,0.01 0,0.02 0,0.03 0,0.01 0,0.02 0,0.03 0,0.01 0.01,0.02 0.01,0.02 0,0.01 0.01,0.02 0.01,0.02 0.01,0.01 0.02,0.01 0.03,0.01 0,0 0.01,0 0.01,0 0.01,0 0.01,-0.01 0.01,-0.01 0.01,0 0.01,-0.01 0.02,-0.01 0,-0.01 0.01,-0.01 0.01,-0.02l0 -0.08z"/>
  <path id="15" class="fil3" d="M6.06 1.5c0,0 0,0 0,0 0,0.01 0,0.01 -0.01,0.01 0,0 0,0 0,0 -0.01,0 -0.01,0 -0.01,0 0,0 -0.01,0 -0.01,-0.01 0,0 0,0 0,0l0 -0.02c-0.01,0.01 -0.02,0.02 -0.03,0.02 -0.01,0.01 -0.02,0.01 -0.03,0.01 -0.01,0 -0.02,0 -0.03,0 -0.01,-0.01 -0.01,-0.01 -0.02,-0.02 0,0 -0.01,-0.01 -0.01,-0.01 -0.01,-0.01 -0.01,-0.02 -0.01,-0.03 0,-0.01 0,-0.02 0.01,-0.03 0,-0.01 0.01,-0.01 0.02,-0.02 0.01,0 0.02,-0.01 0.03,-0.01 0.01,0 0.02,0 0.04,0l0.03 0 0 -0.02c0,-0.01 0,-0.01 -0.01,-0.02 0,0 0,-0.01 0,-0.01 -0.01,-0.01 -0.01,-0.01 -0.02,-0.01 0,0 -0.01,0 -0.02,0 -0.01,0 -0.01,0 -0.02,0 -0.01,0 -0.01,0 -0.02,0.01 0,0 -0.01,0 -0.01,0 -0.01,0 -0.01,0.01 -0.01,0.01 0,0 0,0 0,-0.01 0,0 -0.01,0 -0.01,0 0,0 0,0 0,0 0,0 0,-0.01 0,-0.01 0,0 0,0 0,-0.01 0,0 0,0 0.01,0 0,0 0,-0.01 0.01,-0.01 0,0 0.01,0 0.01,-0.01 0.01,0 0.02,0 0.02,0 0.01,0 0.02,0 0.03,0 0.01,0 0.02,0 0.03,0 0.01,0 0.02,0.01 0.02,0.02 0.01,0 0.01,0.01 0.02,0.02 0,0.01 0,0.02 0,0.03l0 0.13zm-0.03 -0.09l-0.03 0c-0.01,0 -0.02,0 -0.03,0 -0.01,0.01 -0.01,0.01 -0.02,0.01 0,0 -0.01,0.01 -0.01,0.01 0,0.01 0,0.01 0,0.02 0,0.01 0,0.02 0.01,0.02 0,0.01 0.01,0.01 0.03,0.01 0,0 0.01,0 0.02,-0.01 0.01,0 0.02,-0.01 0.03,-0.02l0 -0.04z"/>
  <path id="16" class="fil3" d="M6.21 1.51l-0.03 0.07c0,0 0,0 -0.01,0 0,0 0,0 -0.01,0 -0.01,0 -0.01,0 -0.01,0 0,0 -0.01,0 -0.01,0 0,0 0,0 0,0 0,0 0,-0.01 0,-0.01l0.03 -0.06c0,-0.01 0,-0.01 0,-0.01 -0.01,0 -0.01,0 -0.01,0l-0.07 -0.19c0,0 0,0 0,0 0,-0.01 0,-0.01 0,-0.01 0.01,0 0.01,0 0.01,0 0,0 0.01,0 0.01,0 0,0 0.01,0 0.01,0 0,0 0,0 0.01,0 0,0 0,0 0,0 0,0 0,0.01 0,0.01l0.06 0.15 0 0 0.05 -0.15c0,-0.01 0,-0.01 0,-0.01 0,0 0.01,0 0.01,0 0,0 0.01,0 0.01,0 0,0 0.01,0 0.01,0 0,0 0,0 0.01,0 0,0 0,0 0,0.01 0,0 0,0 0,0l-0.07 0.2z"/>
 </g>
</svg>
