<?xml version="1.0" encoding="UTF-8"?>
<!DOCTYPE svg PUBLIC "-//W3C//DTD SVG 1.1//EN" "http://www.w3.org/Graphics/SVG/1.1/DTD/svg11.dtd">
<!-- Creator: CorelDRAW 2020 (64-Bit) -->
<svg xmlns="http://www.w3.org/2000/svg" xml:space="preserve" width="1425px" height="74px" version="1.1" style="shape-rendering:geometricPrecision; text-rendering:geometricPrecision; image-rendering:optimizeQuality; fill-rule:evenodd; clip-rule:evenodd"
viewBox="0 0 86.99 4.51"
 xmlns:xlink="http://www.w3.org/1999/xlink"
 xmlns:xodm="http://www.corel.com/coreldraw/odm/2003">
 <defs>
  <style type="text/css">
   <![CDATA[
    .fil0 {fill:#CA9F3C;fill-rule:nonzero}
   ]]>
  </style>
 </defs>
 <g id="Layer_x0020_1">
  <metadata id="CorelCorpID_0Corel-Layer"/>
  <path class="fil0" d="M70.35 0.09c-0.04,-0.03 -0.19,-0.05 -0.24,-0.05 -0.02,0 -0.04,0 -0.06,0 0.1,0.02 0.2,0.04 0.3,0.05zm-0.02 -0.01c0.05,0.01 0.1,0.02 0.02,0.01 0,0.01 0,0.01 0.01,0.02 0.94,-0.15 0,-0.12 -0.27,-0.08 0.05,0 0.11,0 0.16,0 0.03,0.02 0.06,0.03 0.08,0.05zm-63.62 2.4c0.01,0.01 0.03,0.01 0.04,0.01 -0.07,-0.02 -0.19,-0.06 -0.04,-0.01zm-6.7 -1.36c0.03,0.01 0.1,0.01 0.1,0.01 -0.05,-0.03 -0.07,-0.03 0.01,0 0.01,0 0.02,0 0.04,0 -0.03,-0.01 -0.06,-0.01 -0.09,-0.02 0.01,0 -0.09,-0.01 -0.06,0.01zm1.04 0.38c0.06,0.03 0.19,0.03 0.19,0.03 -0.1,-0.06 -0.11,-0.07 0.02,0 0.02,0 0.04,0 0.07,0 -0.06,-0.02 -0.11,-0.03 -0.16,-0.05 0.02,0 -0.16,-0.01 -0.12,0.02zm-0.69 -0.25c0.02,0 0.05,0.01 0.05,0.01 -0.02,-0.02 -0.04,-0.03 0,-0.01 0.01,0 0.02,0 0.03,0 -0.02,0 -0.03,-0.01 -0.05,-0.01 0.01,0 -0.05,-0.01 -0.03,0.01zm53.9 2.36c-0.68,-0.24 -0.72,-0.23 -0.09,0.01 -0.38,0.03 -0.81,0.06 -1.18,-0.01 -0.27,-0.12 0.73,-0.2 0.75,-0.2 0.31,0.04 0.61,0.09 0.92,0.13 0,0.01 0,0.01 0,0.01 0,0 0,0 0,0.01 0,0 -0.36,0.04 -0.4,0.05zm-16.15 -0.02c-0.34,-0.04 -0.33,-0.04 -0.04,0 -0.17,0.03 -0.36,0.06 -0.53,0.05 -0.15,-0.02 0.32,-0.09 0.32,-0.09 0.16,0 0.31,0 0.47,0 -0.07,0.01 -0.15,0.02 -0.22,0.04zm-0.89 0.07c-0.05,-0.01 -0.05,0 0,0 -0.17,0.03 -0.04,0 0.04,0 -0.01,0 -0.03,0 -0.04,0zm-0.48 -0.03c-0.1,-0.01 -0.07,-0.01 0.02,0 -0.01,0 -0.01,0 -0.02,0zm-18.07 -1.3c-0.04,0 -0.08,0 -0.12,0 -0.22,0.01 -0.49,0.03 -0.7,-0.06 -0.19,-0.08 0.49,-0.09 0.51,-0.09 0.23,0.04 0.47,0.08 0.71,0.12 -0.14,0.01 -0.27,0.02 -0.41,0.02 0,0.01 0.01,0.01 0.01,0.01zm-2.35 -0.03c-0.04,-0.01 -0.08,-0.03 -0.11,-0.04 0.03,0.01 0.09,0.05 0.09,0.05 0,0 -0.07,-0.02 -0.1,-0.02 -0.04,0.06 -0.1,0.03 -0.14,-0.01 -0.04,-0.03 0.13,0.01 0.14,0.01 0,-0.01 0.01,-0.02 0.01,-0.03 -0.01,0 -0.02,-0.01 0,0 0,0 0,0 0,0 0.07,0.01 0.14,0.02 0.21,0.04 -0.03,0 -0.07,0 -0.1,0zm-0.37 -0.03c-0.48,-0.19 -0.5,-0.19 -0.06,0 -0.25,0 -0.55,0 -0.8,-0.07 -0.18,-0.09 0.49,-0.09 0.5,-0.09 0.23,0.05 0.46,0.09 0.69,0.14 -0.11,0 -0.22,0.01 -0.33,0.02zm-0.22 -0.26c-0.06,-0.03 0,-0.01 0.02,0 0.11,-0.01 0.32,0 0.32,0 0.06,0.03 0.12,0.05 0.18,0.08 -0.08,0.01 -0.16,0.01 -0.24,0.02 -0.09,-0.02 -0.19,-0.1 -0.28,-0.1 0.08,0.03 0.23,0.1 0.23,0.1 -0.26,0 -1.11,-0.08 -0.23,-0.1zm-1.49 1.64c-0.44,-0.21 -0.47,-0.21 -0.06,0 -0.24,-0.01 -0.54,-0.03 -0.77,-0.11 -0.17,-0.1 0.48,-0.07 0.5,-0.07 0.22,0.07 0.44,0.12 0.65,0.18 -0.1,0 -0.21,0 -0.32,0zm-1.06 -0.74c-0.84,-0.31 -0.92,-0.33 -0.13,0 -0.47,-0.02 -1.03,-0.04 -1.49,-0.19 -0.33,-0.16 0.94,-0.08 0.97,-0.08 0.42,0.1 0.85,0.19 1.27,0.28 -0.2,0 -0.41,0 -0.62,-0.01zm-1.23 0.54c-0.14,-0.07 -0.14,-0.07 -0.02,0 -0.18,-0.01 -0.4,-0.09 -0.09,-0.05 0.07,0.02 0.14,0.04 0.21,0.06 -0.04,-0.01 -0.07,-0.01 -0.1,-0.01zm-0.41 -0.06c-0.22,-0.02 -0.52,-0.04 -0.74,-0.13 -0.16,-0.11 0.46,-0.05 0.48,-0.05 0.21,0.06 0.42,0.12 0.63,0.18 -0.1,0 -0.2,0 -0.31,0 -0.42,-0.22 -0.45,-0.23 -0.06,0zm-0.11 -0.29c0.16,0.04 0.32,0.09 0.49,0.14 -0.08,-0.01 -0.16,-0.01 -0.23,-0.01 -0.32,-0.16 -0.37,-0.17 -0.06,0 -0.28,-0.02 -1.04,-0.19 -0.2,-0.13zm-0.41 -1.06c-0.03,-0.01 0,-0.02 0.01,-0.02 0.06,-0.01 0.12,-0.02 0.18,-0.03 0.1,0.01 0.2,0.02 0.3,0.04 -0.04,0 -0.09,0.01 -0.13,0.01 -0.22,-0.06 -0.22,-0.05 -0.03,0.01 0,0 -0.22,0.02 -0.33,-0.01zm-0.16 -0.19c-0.21,0.02 -0.43,0.04 -0.63,0.02 -0.17,-0.05 0.37,-0.1 0.38,-0.1 0.18,0.01 0.37,0.03 0.55,0.04 -0.08,0.01 -0.17,0.02 -0.25,0.03 -0.4,-0.08 -0.42,-0.08 -0.05,0.01zm-0.17 0.11c-0.09,-0.02 -0.11,-0.02 -0.02,0 -0.07,0.01 -0.25,-0.01 -0.06,-0.02 0.05,0.01 0.09,0.01 0.13,0.01 -0.01,0 -0.03,0.01 -0.05,0.01zm0.37 -0.2c0.02,0 0.05,0 0.07,0.01 -0.01,0 -0.02,0 -0.03,0 -0.05,-0.02 -0.06,-0.02 -0.01,0 -0.02,0 -0.13,0 -0.03,-0.01zm0.68 0.1c0.06,0.01 0.12,0.01 0.18,0.01 -0.03,0.01 -0.06,0.01 -0.08,0.01 -0.13,-0.02 -0.14,-0.02 -0.02,0 -0.09,0.01 -0.35,0.01 -0.08,-0.02zm0.09 0.28c-0.1,0.01 -0.34,-0.01 -0.08,-0.02 0.06,0 0.12,0 0.18,0 -0.03,0.01 -0.05,0.01 -0.08,0.02 -0.12,-0.03 -0.13,-0.03 -0.02,0zm0.31 -0.28c0.07,0 0.15,0.01 0.22,0.01 -0.03,0.01 -0.07,0.01 -0.1,0.02 -0.17,-0.04 -0.16,-0.04 -0.02,0 0,0 -0.17,0.03 -0.25,0 -0.07,-0.02 0.14,-0.03 0.15,-0.03zm0.27 0.1c-0.07,-0.02 -0.07,-0.02 -0.01,0 -0.2,0.02 -0.07,-0.02 0.05,-0.01 -0.01,0.01 -0.03,0.01 -0.04,0.01zm0.36 0.16c0.32,0.03 0.64,0.06 0.96,0.09 -0.05,0 -0.09,0 -0.14,0 0.01,0 0.01,0 0.01,0 -0.09,0.01 -0.19,0.01 -0.29,0.02 0,0 0.01,0 0.01,0 0,0 -0.12,0 -0.18,-0.01 0,0 0.03,0.01 0.03,0.01 -0.37,0 -0.77,0.01 -1.13,-0.04 -0.26,-0.07 0.72,-0.07 0.73,-0.07zm0.43 -0.1c0.04,0 0.09,0 0.13,0.01 -0.02,0 -0.04,0 -0.06,0.01 -0.11,-0.02 -0.09,-0.02 -0.01,0 -0.07,0 -0.27,0.01 -0.06,-0.02zm0.43 0.33c0,0 -0.17,0.01 -0.25,-0.01 -0.03,-0.02 0.11,-0.02 0.16,-0.02 0.07,0.01 0.14,0.01 0.21,0.02 -0.04,0.01 -0.07,0.01 -0.1,0.01 -0.14,-0.04 -0.15,-0.04 -0.02,0zm-0.01 -0.26c0.07,-0.01 0.13,-0.02 0.19,-0.04 0.11,0.01 0.21,0.02 0.31,0.03 -0.04,0.01 -0.09,0.01 -0.13,0.02 -0.23,-0.05 -0.23,-0.05 -0.03,0 -0.01,0.01 -0.48,0.03 -0.34,-0.01zm0.76 0.08c0.06,0 0.12,0 0.18,0 -0.03,0.01 -0.06,0.01 -0.08,0.02 -0.15,-0.03 -0.12,-0.02 -0.01,0 -0.08,0.01 -0.39,0.02 -0.09,-0.02zm-4.51 -0.3c-0.06,-0.02 -0.08,-0.02 -0.01,0 -0.2,0.01 -0.06,-0.02 0.04,-0.01 -0.01,0 -0.02,0 -0.03,0.01zm-0.16 -0.08c-0.13,0.01 -0.42,-0.04 -0.11,-0.04 0.07,0.01 0.15,0.02 0.22,0.03 -0.03,0.01 -0.06,0.01 -0.09,0.01 -0.17,-0.05 -0.16,-0.04 -0.02,0zm-0.4 -0.02c-0.13,-0.02 -0.11,-0.01 -0.01,0.01 -0.09,0 -0.34,-0.02 -0.08,-0.03 0.06,0 0.11,0.01 0.17,0.02 -0.03,0 -0.05,0 -0.08,0zm-0.7 -0.13c-0.05,-0.01 -0.04,-0.01 0,0 -0.15,0.01 -0.04,-0.01 0.03,0 -0.01,0 -0.02,0 -0.03,0zm-0.4 -0.07c-0.09,-0.02 -0.09,-0.02 -0.01,0 -0.07,0.01 -0.25,-0.01 -0.06,-0.02 0.04,0 0.08,0.01 0.13,0.01 -0.02,0 -0.04,0.01 -0.06,0.01zm74.93 -0.37c-0.09,0.02 -0.2,0.03 -0.29,0.02 -0.32,-0.05 -0.64,-0.1 -0.96,-0.14 -0.05,-0.02 -0.48,-0.1 -0.52,-0.05 0.05,-0.01 0.11,0.02 0.16,0.07 -0.06,-0.01 -0.13,-0.02 -0.19,-0.03 0.01,-0.02 0.02,-0.03 0.03,-0.04 -0.03,0 -0.06,0.01 -0.09,0.02 -0.15,-0.04 -0.32,-0.09 -0.45,-0.18 -0.39,-0.41 1.25,-0.32 0.94,-0.75 -0.18,0.02 -0.76,0.11 -0.89,0.01 -0.12,-0.17 -0.91,-0.07 -1.09,-0.07 -0.36,0 -0.71,0.02 -1.07,-0.02 -0.12,-0.01 -0.26,0.01 -0.39,0.03 0.43,0.02 0.86,0.05 1.29,0.07 0.12,-0.05 0.24,-0.07 0.36,-0.06 0.16,0.01 0.33,0.03 0.49,0.05 0.23,0.03 0.46,0.06 0.7,0.1 0.16,0.02 0.32,0 0.48,0.02 0,0 -0.01,0 -0.01,0 -0.09,-0.01 -0.18,0.02 -0.28,0.01 -0.06,0 -0.13,-0.02 -0.19,-0.03 -0.52,-0.03 -1.03,-0.06 -1.55,-0.09 -0.02,0.01 -0.08,0.04 -0.08,0.04 0,0 -0.28,-0.01 -0.42,-0.02 -0.28,-0.02 -0.59,0.01 -0.88,0.03 0,0 -0.31,0.1 -0.46,0.13 -0.24,0.03 -0.48,0.03 -0.72,0.05 -0.18,0.02 -0.39,-0.03 -0.57,0.02 -0.15,0.04 -0.31,0.09 -0.46,0.14 -0.2,0.05 -0.51,0.01 -0.72,0.01 -0.1,0.01 -0.45,0.02 -0.14,-0.03 -0.18,-0.05 -0.38,-0.11 -0.55,-0.13 -0.06,0 -0.12,0 -0.18,0 -0.08,0 -0.05,0 -0.1,-0.01 -0.1,-0.01 -0.32,0.02 -0.32,0.02 0,0.01 -0.3,-0.04 -0.42,-0.14 -0.72,0 -1.44,0.01 -2.17,0.01 -0.22,-0.01 -0.44,-0.01 -0.66,-0.01 -0.62,0 -1.23,0.01 -1.85,0.03 0.32,-0.05 0.64,-0.1 0.96,-0.15 -0.68,-0.01 -1.35,0 -2.03,0.03 -0.43,0.02 -0.86,0.04 -1.29,0.04 -0.2,-0.03 -0.4,-0.06 -0.59,-0.09 -1.43,-0.03 -2.93,-0.08 -4.35,0.05 -0.3,0.04 -0.6,0.09 -0.9,0.12 -0.3,0.02 -0.62,0.01 -0.93,-0.05 -0.4,0 -0.8,0.01 -1.21,0 -0.23,-0.01 -0.71,0.03 -0.71,0.03 -0.47,0.01 -0.94,0.03 -1.41,0.04 0,0 -0.33,-0.03 -0.49,-0.04 -0.43,-0.01 -0.87,0 -1.3,-0.05 0,0 -0.01,0 -0.01,0 -0.33,0.01 -0.66,0.04 -0.98,0.1 -0.11,0 -0.22,0 -0.33,-0.01 -0.13,0.01 -0.26,0.03 -0.39,0.04 0.23,0.03 0.46,0.07 0.69,0.11 0.15,0.02 0.3,0.01 0.45,0.03 0,0 -0.01,0 -0.01,0 -0.08,-0.01 -0.17,0.01 -0.25,0.01 -0.07,-0.01 -0.13,-0.03 -0.19,-0.04 -0.38,-0.03 -0.76,-0.06 -1.14,-0.08 -0.39,0.01 -1.14,0.17 -1.48,0.05 -0.01,0 -0.03,-0.01 -0.04,-0.01 -0.14,0.04 -0.27,0.09 -0.42,0.13 -0.21,0.04 -0.42,0.04 -0.64,0.06 -0.17,0.02 -0.36,-0.02 -0.52,0.03 -0.14,0.05 -0.27,0.1 -0.41,0.15 -0.18,0.05 -0.46,0.02 -0.66,0.03 -0.08,0.01 -0.4,0.04 -0.11,-0.02 -0.16,-0.05 -0.34,-0.1 -0.5,-0.13 -0.06,0.01 -0.11,0.01 -0.17,0.01 -0.07,0 -0.14,-0.01 -0.22,0 0,0.01 0,0.02 0,0.03 -0.07,-0.01 -0.14,-0.01 -0.21,-0.01 -1.33,-0.1 -2.68,-0.16 -4.01,-0.28 -0.07,-0.01 -0.04,-0.02 -0.13,-0.02 -0.27,-0.02 -0.48,0.01 -0.75,0.06 0.06,0.03 0.11,0.07 0.17,0.1 -0.14,-0.02 -0.29,-0.04 -0.43,-0.05 -0.01,-0.04 -0.02,-0.07 -0.03,-0.11 0.08,-0.02 0.17,-0.04 0.25,-0.06 -0.15,-0.02 -0.36,-0.02 -0.51,-0.01 -0.07,0.02 -0.14,0.03 -0.21,0.05 0.01,0.02 0.02,0.04 0.03,0.06 -0.4,-0.03 -0.78,-0.39 -1.19,-0.38 -0.1,0.01 -0.21,0.01 -0.31,0.01 0.1,0.03 0.21,0.06 0.31,0.08 0,0 -0.32,0.01 -0.48,0.01 -0.42,-0.02 -0.89,0.01 -1.31,0.04 -0.41,0.06 -0.86,0.19 -1.27,0.3 -0.05,0.17 -0.8,0.27 -0.89,0.29 -1.11,0.14 -2.27,-0.03 -3.38,0.03 -0.46,0.01 -0.92,0.03 -1.37,0 -0.24,-0.02 -0.4,0.02 -0.62,0.03 -0.09,0.01 -0.17,0 -0.26,0 -0.6,0.05 -1.2,0.09 -1.79,0.12 -0.03,0.01 -0.08,0.05 -0.08,0.05 0,0 -0.22,0.02 -0.33,0.02 -0.47,0.1 -0.94,0.2 -1.41,0.3 -0.04,0.01 -0.08,0.02 -0.11,0.03 -0.48,0.14 -0.98,0.14 -1.45,0.29 -0.09,0.04 -0.18,0.09 -0.27,0.13 -0.18,0.08 -0.51,0.06 -0.72,0.09 -0.02,0.01 -0.42,0.07 -0.16,0 -0.26,-0.02 -0.51,-0.04 -0.76,-0.06 -0.06,0.01 -0.01,0 -0.06,0 -0.1,0 -0.31,0.06 -0.31,0.06 -0.12,-0.02 -0.37,-0.05 -0.47,-0.12 -0.27,-0.02 -0.58,-0.08 -0.85,-0.04 -0.16,0.02 -0.24,0.09 -0.41,-0.02 -0.23,-0.01 -0.28,-0.01 -0.48,-0.08 -0.24,-0.02 -0.48,-0.04 -0.72,-0.06 -0.06,0.01 -0.12,0.03 -0.17,0.04 -0.04,-0.02 -0.07,-0.04 -0.11,-0.06 -0.53,-0.05 -1.07,-0.11 -1.6,-0.14 -0.39,0 -0.8,0.06 -1.19,0.12 0.29,0.04 0.58,0.08 0.88,0.12 -0.22,0.01 -0.43,0.02 -0.65,0.04 -0.14,-0.04 -0.29,-0.08 -0.44,-0.13 -0.02,0.01 -0.05,0.01 -0.07,0.02 0.12,0.04 0.38,0.11 0.38,0.11 -0.42,0.02 -0.84,0.01 -1.26,-0.02 -0.3,0.01 -0.61,0.01 -0.92,0.01 -0.28,0.05 -0.56,0.1 -0.84,0.16 0.37,0.03 0.75,0.06 1.12,0.08 -0.21,0.01 -0.42,0.03 -0.63,0.04 -0.19,-0.02 -0.44,-0.13 -0.62,-0.1 0.17,0.03 0.5,0.1 0.5,0.1 -0.45,0.01 -0.89,0.02 -1.33,-0.02 -0.2,0.03 -0.43,0.06 -0.62,0.03 -0.17,-0.04 0.39,-0.1 0.39,-0.1 0.02,0 0.04,0 0.06,0 0.15,-0.01 0.3,-0.02 0.45,-0.03 -0.02,0 -0.04,0 -0.06,-0.01 0.28,-0.09 0.55,-0.18 0.82,-0.27 -0.1,-0.06 -0.48,-0.01 -0.6,0.01 0,-0.02 0,-0.04 0.01,-0.07 -0.18,-0.12 -0.09,-0.09 -0.33,-0.08 -0.4,0.02 -0.13,0.08 0.07,0.16 -0.31,0.08 -0.61,0.17 -0.92,0.25 -0.21,-0.01 -0.41,-0.02 -0.62,-0.03 -0.17,0 -0.34,-0.01 -0.51,-0.01 -0.3,-0.01 -0.6,-0.04 -0.9,-0.07 0,0 0.01,0 0.01,0 0,0.01 -0.27,0.02 -0.11,-0.01 -0.13,-0.01 -0.25,-0.02 -0.38,-0.03 -0.21,0 -0.42,-0.01 -0.64,-0.01 -0.08,-0.01 -0.17,-0.02 -0.26,-0.03 0.03,0.01 0.08,0.02 0.08,0.02 -0.09,0.01 -0.85,0.02 -0.3,-0.05 -0.07,0 -0.14,-0.01 -0.21,-0.02 -0.2,-0.08 -0.48,-0.33 -0.67,-0.49 -0.01,0.26 -0.08,0.41 -0.21,0.41 -0.21,-0.02 -0.42,-0.01 -0.64,-0.04 -0.18,-0.02 -0.34,0.02 -0.52,0.01 -0.17,0 -0.34,-0.02 -0.51,0 -0.05,0 -0.23,0.1 -0.24,0.21 0,0.01 0,0.05 0,0.07 0.46,0.02 3.95,0.11 4.01,0.19 -0.08,0.04 -0.17,0.07 -0.26,0.11 0.13,-0.01 0.4,-0.01 0.4,-0.01 0.31,0.04 0.62,0.07 0.92,0.11 -0.14,0 -0.29,0.01 -0.44,0.01 -0.6,-0.14 -0.69,-0.15 -0.1,0 -0.32,0 -0.65,-0.01 -0.97,-0.05 -0.21,0.07 -0.43,0.13 -0.64,0.22 -0.03,0.01 0.47,0.1 0.31,0.36 -0.42,-0.05 -0.84,-0.1 -1.27,-0.15 -0.04,0 -0.09,0 -0.14,0 -0.06,-0.01 -0.12,-0.02 -0.18,-0.04 0.05,0.02 0.14,0.05 0.14,0.05 0,0 -0.06,0 -0.1,0 0.02,0 0.04,0 0.05,0.01 -0.03,0 -0.06,-0.01 -0.1,-0.01 0.19,0.08 0.23,0.11 0.4,0.13 0.06,0.01 0.13,0.03 0.2,0.04 -0.03,0 -0.06,0.01 -0.09,0.01 -0.14,-0.06 -0.17,-0.07 -0.03,-0.01 0,0 -0.05,0.01 -0.08,0.01 0.13,0.05 0.15,0.05 0.27,0.07 -0.01,0 -0.02,0 -0.04,0 -0.06,-0.02 -0.06,-0.02 -0.01,0 0,0 -0.02,0.01 -0.03,0 0.09,0.04 0.75,0.32 0.81,0.24 -0.09,0 -0.15,-0.08 -0.22,-0.19 -0.14,-0.01 -0.37,-0.05 -0.05,-0.07 0,-0.01 -0.01,-0.03 -0.01,-0.03 0.1,0.03 0.16,0.01 0.26,0.01 0.31,0.01 0.63,0.03 0.95,0.04 0.4,0.07 0.81,0.14 1.21,0.2 -0.2,0 -0.4,-0.01 -0.6,-0.02 -0.78,-0.22 -0.88,-0.23 -0.12,0 -0.41,-0.02 -0.84,-0.06 -1.25,-0.13 -0.02,0 -0.04,0.01 -0.05,0.01 -0.02,0.02 -0.04,0.06 -0.06,0.09 0.01,0 0.02,0 0.03,0 -0.01,0 -0.02,0 -0.03,0 -0.02,0.03 -0.04,0.07 -0.06,0.09 0.13,0 0.26,-0.02 0.4,-0.01 0.16,0.01 0.25,0.01 0.42,0.04 -0.04,0 -0.09,0 -0.13,0.01 -0.2,-0.07 -0.21,-0.07 -0.03,0 0,0 -0.1,0 -0.15,0 0.14,0.07 0.35,0.06 0.43,0.11 0.1,-0.02 0.18,-0.01 0.28,0.01 -0.03,0 -0.05,0 -0.08,0 -0.11,-0.03 -0.13,-0.03 -0.02,0 0,0 -0.12,0.01 -0.18,0 -0.01,0.06 -0.54,0.08 -0.59,0.08 0.03,0.01 0.05,0.01 0.08,0.02 -0.04,-0.01 -0.08,-0.01 -0.12,-0.02 0,0 -0.01,0 -0.02,0 0.01,0 0.03,0.01 0.03,0.01 0,0 -0.05,0 -0.08,0 -0.42,0.01 -3.31,-0.02 -3.47,0.14 0.2,0.01 0.79,0.03 0.95,0.13 0.13,0.16 0.92,0.17 1.12,0.19 0.36,0.04 0.72,0.08 1.08,0.13 0.45,0.07 0.96,0.01 1.43,0.03 0.95,0.05 1.91,0.02 2.86,0.07 0.65,0.03 1.3,0.05 1.95,0.05 -0.22,0.03 -0.45,0.06 -0.68,0.09 0.49,0.02 0.97,0.03 1.46,0.02 0.51,-0.02 0.88,-0.03 1.39,0.05 1.06,0.18 2.3,0.38 3.35,0.31 0.27,-0.03 0.54,-0.07 0.81,-0.09 0.29,-0.02 0.91,0.02 0.91,0.02 0.42,-0.01 0.84,-0.02 1.26,-0.03 0.28,0 0.83,-0.04 0.83,-0.04 0.64,-0.03 1.28,-0.05 1.92,-0.08 0,0 0.54,0 0.82,0 1.37,-0.03 2.75,-0.06 4.12,-0.1 0.62,-0.05 1.24,-0.23 1.85,-0.5 1,-0.07 1.99,0.22 2.99,0.15 -0.01,0 -0.02,0 -0.03,0 0.23,-0.02 0.46,-0.04 0.69,-0.06 -0.42,-0.06 -0.3,-0.05 0.08,-0.01 -0.02,0 -0.05,0.01 -0.08,0.01 0.01,0 0.02,0 0.02,0 -0.07,0.01 -0.14,0.02 -0.22,0.03 1.44,-0.11 2.88,0.15 4.31,0.04 0.32,-0.03 0.63,-0.05 0.94,-0.08 0.3,-0.03 0.73,-0.09 1.02,-0.04 0.19,0.06 0.38,0.03 0.58,0.04 0.12,0 0.25,-0.01 0.37,-0.01 -0.09,-0.02 -0.18,-0.04 -0.26,-0.05 -0.81,-0.26 -0.72,-0.25 0.12,-0.01 0.21,-0.02 0.41,-0.04 0.61,-0.05 0.13,0.02 0.25,0.04 0.38,0.07 0.33,-0.05 0.65,-0.1 0.98,-0.16 0.39,-0.02 0.79,-0.04 1.19,-0.06 0.01,-0.02 0.02,-0.05 0.03,-0.07 1.23,0.2 2.46,0.41 3.69,0.64 0.06,-0.02 0.17,-0.04 0.17,-0.04 0.29,-0.04 0.57,-0.08 0.85,-0.12 0.35,0.01 0.7,0.02 1.05,0.03 -0.17,0.02 -0.34,0.04 -0.51,0.06 -0.69,-0.11 -0.77,-0.11 -0.1,0.02 -0.13,0.01 -0.26,0.02 -0.38,0.03 0.07,0.01 0.15,0.02 0.23,0.03 0.02,0.03 0.03,0.05 0.04,0.08 -0.07,0.01 -0.14,0.03 -0.21,0.04 0.12,0.03 0.3,0.02 0.42,0.01 0.05,-0.01 0.11,-0.02 0.17,-0.03 -0.02,-0.02 -0.03,-0.03 -0.04,-0.05 0.1,0.01 0.2,0.02 0.3,0.02 0.05,0 0.15,-0.01 0.15,-0.01 0.03,0.01 0.07,0.02 0.11,0.02 0.2,0 0.4,0 0.6,-0.01 -0.07,-0.02 -0.14,-0.04 -0.21,-0.06 -0.06,0.01 -0.12,0.02 -0.18,0.03 -0.07,-0.02 -0.14,-0.09 -0.21,-0.09 0.06,0.03 0.17,0.09 0.17,0.09 -0.21,0.02 -0.86,-0.03 -0.17,-0.09 -0.05,-0.03 0,-0.01 0.02,0 0.07,-0.01 0.23,-0.01 0.23,-0.01 0.05,0.02 0.1,0.04 0.14,0.07 0.38,0.04 0.89,0.02 1.28,0 0.02,0 0.04,-0.01 0.05,0 -0.01,-0.07 0.1,-0.17 0.12,-0.19 0.01,-0.15 0.17,-0.18 0.22,-0.19 0.55,-0.11 1.17,-0.19 1.72,-0.2 0.38,0 0.77,0.03 1.15,0.05 -0.05,-0.01 -0.09,-0.03 -0.13,-0.06 0,0 -0.21,-0.04 -0.31,-0.07 -0.06,-0.02 -0.13,-0.04 -0.19,-0.04 -0.15,0.03 -0.31,0.06 -0.46,0.1 -0.09,-0.06 -0.18,-0.11 -0.27,-0.17 4.75,-0.13 9.51,-0.14 14.26,-0.22 0,0 0.04,0 0.05,0 0.17,-0.06 0.34,-0.1 0.51,-0.1 0.27,0 0.53,0 0.8,0 0.38,0.01 0.77,0.02 1.15,0.03 0.06,0 0.8,-0.02 0.8,-0.03 0,0 0,0 -0.01,0 -0.15,0 -0.3,0.04 -0.45,0.04 -0.11,0 -0.22,-0.01 -0.34,-0.01 -0.82,0.02 -1.64,0.05 -2.46,0.07 -0.01,0 -0.04,0.01 -0.05,0.02 -0.02,0.01 -0.08,0.03 -0.08,0.03 -0.3,0 -0.6,0.01 -0.91,0.01 -0.57,0.01 -1.16,0.07 -1.74,0.11 -0.34,0.08 -0.67,0.15 -1.01,0.19 0.38,-0.01 3.74,-0.14 3.74,-0.15 0.61,-0.04 1.21,-0.08 1.82,-0.13 0.4,-0.01 0.81,0 1.22,-0.04 0.37,-0.06 0.74,-0.13 1.1,-0.19 0.16,0 0.32,0.01 0.47,0.02 -0.27,0.07 -0.54,0.15 -0.81,0.23 0.13,0.06 0.46,-0.01 0.6,-0.03 0,0.02 0,0.03 0,0.05 0.17,0.07 0.13,0.06 0.34,0.05 0.41,-0.04 0.08,-0.08 -0.08,-0.12 0.3,-0.08 0.61,-0.15 0.92,-0.23 0.2,-0.01 0.41,-0.01 0.61,-0.02 0.36,-0.03 0.73,-0.03 1.09,-0.03 0.27,-0.01 0.53,-0.01 0.79,-0.01 0.21,-0.02 0.41,-0.04 0.61,-0.06 0.23,0 0.45,0 0.67,0 0.2,0.04 0.46,0.19 0.66,0.3 0.01,-0.23 0.08,-0.31 0.18,-0.33 0.19,0 0.39,-0.04 0.59,-0.05 0.12,0 0.23,-0.03 0.35,-0.05 0.06,-0.01 0.11,-0.01 0.17,-0.02 0.23,-0.02 0.45,-0.03 0.67,-0.07 0.04,-0.01 0.3,-0.08 0.28,-0.24 -0.12,-0.19 -0.21,-0.41 -0.01,-0.52 0.09,-0.05 -0.72,-0.04 -1.12,-0.02 -0.11,0 -0.43,0 -0.42,0 0.04,-0.02 -0.39,-0.28 -0.26,-0.49 0.23,0 0.45,0 0.68,0 0.42,0.01 0.85,0 1.28,-0.02 0.41,0.07 -0.35,-0.25 -0.36,-0.25 0.03,0.01 0.39,0.17 0.33,0.18zm3.49 -1.1c0.04,0.01 0.03,0.01 -0.01,0 0,0.01 -0.01,0.01 -0.01,0.02 0.05,-0.01 0.12,-0.06 0.02,-0.02zm-73.46 1.76c0.01,0 0.01,0 0.02,0 -0.01,0 -0.06,-0.01 -0.02,0zm73.62 -1.62c0.08,-0.12 0.23,-0.22 0.18,-0.18 0.04,0 0,0.01 -0.01,0.01 0,0 0,0 0,0 -0.01,0.01 -0.02,0.02 -0.03,0.02 0.01,0 0.02,0 0.03,-0.01 0.01,0 0.03,-0.01 0.03,-0.01 -0.09,-0.02 -0.34,0.4 -0.2,0.17zm-1.71 0c0.03,0.02 0.01,0 0.01,0.03 0,0.04 0.34,0.01 0.37,0.01l-0.38 -0.04zm-70.84 3.89c-0.03,-0.01 -0.07,-0.02 -0.01,-0.01 -0.01,-0.01 -0.01,-0.01 -0.02,-0.02 -0.65,0.1 0.02,0.1 0.2,0.07 -0.04,0 -0.08,0 -0.12,0 -0.01,-0.01 -0.03,-0.03 -0.05,-0.04zm72.16 -3.96c-0.03,0 -0.07,0.01 -0.1,0.02 -0.22,0.01 -0.45,0.04 -0.67,0.06 -0.08,0.02 -0.17,0.03 -0.25,0.04 -0.18,0.02 -0.2,0.09 -0.41,0.05 -0.09,-0.02 -0.19,-0.06 -0.29,-0.03 -0.48,0.14 -0.99,0.22 -1.48,0.31 -0.21,0.02 -0.42,-0.01 -0.63,0.02 -0.13,0.02 -0.12,-0.01 -0.24,-0.03 -0.14,-0.02 -0.25,0 -0.38,0.02 -0.07,0 0.54,0.25 0.69,0.31 -0.04,-0.01 -0.18,-0.06 -0.21,-0.1 -0.02,-0.07 0.98,-0.12 1.05,-0.12 0.55,0 1.11,-0.21 1.65,-0.25 -0.04,0 -0.09,0 -0.14,0 0.1,-0.01 0.19,-0.01 0.29,-0.03 0.01,0.01 0.02,0.01 0.03,0.02 -0.01,-0.01 -0.02,-0.01 -0.03,-0.02 0.12,-0.02 0.23,-0.05 0.35,-0.08 0,-0.01 0.04,-0.02 0.04,-0.02 -0.01,0 -0.04,0 -0.04,-0.01 -0.03,0 -0.03,-0.01 0,-0.02 0.14,-0.03 0.29,-0.04 0.44,-0.06 -0.05,0.01 -0.16,0.04 -0.16,0.04 0.3,0.02 0.3,0.02 -0.03,0.01 -0.08,0.03 -0.16,0.05 -0.23,0.07 0.16,-0.01 0.32,-0.03 0.48,-0.05 0,0 0.39,-0.14 0.27,-0.15zm-0.62 -0.05c-0.03,0 -0.13,0 -0.16,0.02 -0.03,0.01 -0.09,0.03 -0.09,0.03 0.11,0.03 0.11,0.04 -0.01,0 -0.02,0.01 -0.05,0.02 -0.07,0.04 0.05,-0.01 0.11,-0.01 0.16,-0.01 0,0 0.01,0 0.01,0 0.01,0 0.23,-0.07 0.16,-0.08zm-34.92 3.9c0,0 0.01,0 0.01,0 -0.02,-0.01 -0.05,-0.01 -0.01,0zm34.59 -3.46c-0.12,-0.14 -0.18,-0.09 -0.32,-0.09 0.11,0.03 0.22,0.06 0.32,0.09zm-0.12 -0.1c0,0 -0.02,0 -0.02,0 0.01,0 0.01,0 0.02,0zm-56.48 0.51c0.05,0 0.09,-0.01 0.14,-0.03 -0.04,0.01 -0.09,0.02 -0.14,0.03zm-19.8 1.8c0,-0.01 0.01,-0.01 0.01,-0.01 -0.03,0 -0.06,-0.01 -0.01,0.01zm-1.93 -0.28c-0.09,-0.04 0.01,0.01 -0.01,0 -0.14,0 -0.02,-0.01 0.04,0 -0.01,0 -0.02,0 -0.03,0zm-0.38 -0.1c-0.08,-0.02 -0.11,-0.03 -0.02,0 -0.07,0 -0.24,-0.04 -0.05,-0.02 0.04,0 0.07,0.01 0.11,0.02 -0.01,0 -0.03,0 -0.04,0zm-0.89 0c-0.14,-0.06 -0.16,-0.07 -0.03,0 -0.17,-0.01 -0.37,-0.08 -0.08,-0.05 0.06,0.01 0.13,0.03 0.19,0.04 -0.03,0 -0.06,0.01 -0.08,0.01zm-0.33 -0.19c0,0 -0.3,0.01 -0.44,-0.04 -0.1,-0.04 0.26,-0.03 0.27,-0.03 0.13,0.02 0.25,0.04 0.38,0.06 -0.06,0.01 -0.12,0.01 -0.18,0.01 -0.27,-0.09 -0.27,-0.09 -0.03,0zm-0.05 0.13c-0.1,-0.03 -0.12,-0.04 -0.02,0 -0.1,0 -0.29,-0.05 -0.06,-0.03 0.05,0.01 0.1,0.02 0.15,0.03 -0.03,0 -0.05,0 -0.07,0zm-0.63 -0.2c-0.04,-0.02 -0.04,-0.02 0,0 -0.12,0 -0.03,-0.01 0.03,0 -0.01,0 -0.02,0 -0.03,0zm-0.36 -0.11c-0.07,-0.03 -0.09,-0.03 -0.01,0 -0.08,0 -0.22,-0.04 -0.04,-0.02 0.03,0.01 0.07,0.01 0.11,0.02 -0.02,0 -0.04,0 -0.06,0zm-3.48 -0.66c-0.03,-0.01 -0.06,-0.02 -0.1,-0.03 0.01,0 0.07,0.01 0.07,0.01 -0.19,-0.1 -0.2,-0.1 0.03,0 0.04,0 0.08,0 0.12,0 0.09,0.07 -0.12,0.02 -0.12,0.02zm6.38 1.15c-0.09,-0.03 0.1,-0.03 0.15,-0.04 -0.82,-0.25 -3.56,-0.79 -4.33,-0.74 0.02,0.15 -1.37,-0.2 -1.46,-0.23 -0.07,-0.02 -0.13,-0.03 -0.2,-0.05 -0.14,-0.04 -0.29,-0.08 -0.44,-0.13 0,0 0,0 0,0 -0.09,-0.02 -0.18,-0.04 -0.27,-0.07 -0.02,0 -0.36,0 -0.17,0.05 -0.02,0.01 0.1,0.06 0.1,0.06 0.17,0.06 0.54,0.12 0.54,0.12 0.05,0.02 0.3,0.09 0.33,0.14 0,0.04 -0.03,0.01 0,0.04 0.03,0.04 -0.06,0.01 0.03,0.04 0.21,0.05 0.26,-0.05 0.46,0.08 0.04,0.02 0.08,0.05 0.12,0.08 0.11,0.09 0.27,0 0.39,0.01 0,0 0.42,0.1 0.46,0.1 0.12,0 0.05,0.02 0.16,0.09 0.1,0.05 0.16,0.03 0.26,0.05 0.98,0.12 1.94,0.25 2.92,0.35 0.08,-0.01 0.23,-0.01 0.23,-0.01 0.13,0.02 0.25,0.04 0.37,0.06 0.22,0.03 0.43,0.02 0.65,0.03 -0.1,-0.01 -0.2,-0.02 -0.3,-0.03zm5.52 -0.35c-0.28,-0.06 -0.19,-0.01 0,0zm69.74 -1.22c0.06,0.03 0.11,0.05 0.17,0.08 -0.06,-0.03 -0.11,-0.05 -0.17,-0.08zm-53.02 -0.12c-0.06,0 -0.12,0.02 -0.17,0.03 0.15,-0.01 0.3,-0.01 0.45,-0.01 0.28,0 0.56,0 0.84,0 0.19,-0.01 0.37,-0.03 0.55,-0.04 -0.55,0 -1.12,-0.01 -1.67,0.02zm-15.39 3.3c0.04,0.03 0.16,0.05 0.21,0.05 -0.07,-0.02 -0.14,-0.04 -0.21,-0.05zm36.83 -0.06c-0.05,0.02 -0.1,0.02 -0.14,0.03 0.08,0.02 0.17,0.04 0.25,0.05 0.22,0.01 0.41,-0.01 0.63,-0.05 -0.03,-0.02 -0.07,-0.04 -0.11,-0.05 -0.21,0.01 -0.42,0.03 -0.63,0.02zm1.76 0.08c0.01,0 0.02,0 0.02,0 -0.01,0 -0.07,-0.03 -0.02,0z"/>
 </g>
</svg>
