<?xml version="1.0" encoding="UTF-8"?>
<!DOCTYPE svg PUBLIC "-//W3C//DTD SVG 1.1//EN" "http://www.w3.org/Graphics/SVG/1.1/DTD/svg11.dtd">
<!-- Creator: CorelDRAW 2020 (64-Bit) -->
<svg xmlns="http://www.w3.org/2000/svg" xml:space="preserve" width="2373px" height="2326px" version="1.1" style="shape-rendering:geometricPrecision; text-rendering:geometricPrecision; image-rendering:optimizeQuality; fill-rule:evenodd; clip-rule:evenodd"
viewBox="0 0 855.62 838.41"
 xmlns:xlink="http://www.w3.org/1999/xlink"
 xmlns:xodm="http://www.corel.com/coreldraw/odm/2003">
 <defs>
  <style type="text/css">
   <![CDATA[
    .fil0 {fill:#278394}
    .fil1 {fill:#CA9F3C}
   ]]>
  </style>
 </defs>
 <g id="Layer_x0020_1">
  <metadata id="CorelCorpID_0Corel-Layer"/>
  <g id="_3034484101392">
   <path class="fil0" d="M316.99 106.84l-25.61 15.15c-8.63,5.19 -15.16,9.56 -23.35,15.7 -26.37,19.76 -21.99,17.52 -42.1,36.01 -19.98,18.37 -38.45,39.95 -55.5,61.69 -4.68,5.97 -11.64,16.76 -17.39,21.7 -12.16,17.92 -24.05,35.4 -36.36,53.75 -21.17,31.55 -48.43,82.77 -64.79,115.47 -10.51,21 -18.05,40.53 -26.98,63.15 -34.49,87.43 -43.42,207.9 41.21,270.64 22.1,16.38 31.13,21.62 56.36,33.77 55.86,26.9 164.35,43.42 227.37,43.02l43.54 1.52 39.06 0c1.83,-0.16 3.62,-0.37 5.37,-0.63l42.66 -2.41c34.3,-0.84 87.3,-8.56 119.31,-15.89 20.31,-4.64 51.06,-13.4 70.33,-21.63 4.15,-3.41 19.7,-9.26 26.07,-12.71 65.35,-35.43 103.62,-85.92 105.27,-167.55 6.12,-44.3 -25.54,-136.18 -45.52,-177.78 -4.02,-8.37 -6.82,-13.52 -10.59,-22.45l-22.48 -42.12c-7.88,-14.78 -15.16,-26.74 -23.68,-40.92l-37.8 -58.34c-51.02,-77 -138.89,-172.28 -235.02,-185.6 -61.72,-8.55 -100.18,15.65 -109.38,16.46z"/>
   <path class="fil1" d="M153.04 257.09c5.75,-4.94 12.71,-15.73 17.39,-21.7 17.05,-21.74 35.52,-43.32 55.5,-61.69 20.11,-18.49 15.73,-16.25 42.1,-36.01 8.19,-6.14 14.72,-10.51 23.35,-15.7l25.61 -15.15c-5.5,-3.37 -6.6,-5.83 -10.5,-10.74 -3.23,-4.05 -7.28,-7.58 -11.12,-11.42l-21.79 -23.27c-35.78,-40.63 -61.25,-63.53 -114.49,-61.25 -67.58,2.89 -121.45,85.38 -89.11,159.7 10.05,23.11 22.64,34.69 39.13,51l21.77 23.29c4.02,4.02 7.49,7.14 11.29,11.25 4.77,5.16 4.75,7.51 10.87,11.69z"/>
   <path class="fil1" d="M670.12 797.85c10.67,20.12 49.05,35.39 77.57,35.02 94.84,-1.25 138.31,-115.58 84.57,-183.96 -6.47,-8.24 -22.29,-26.69 -30.8,-31.32 -1.65,81.63 -39.92,132.12 -105.27,167.55 -6.37,3.45 -21.92,9.3 -26.07,12.71z"/>
  </g>
 </g>
</svg>
