<?xml version="1.0" standalone="no"?>
<!DOCTYPE svg PUBLIC "-//W3C//DTD SVG 20010904//EN"
 "http://www.w3.org/TR/2001/REC-SVG-20010904/DTD/svg10.dtd">
<svg version="1.0" xmlns="http://www.w3.org/2000/svg"
 width="345.000000pt" height="101.000000pt" viewBox="0 0 345.000000 101.000000"
 preserveAspectRatio="xMidYMid meet">

<g transform="translate(0.000000,101.000000) scale(0.100000,-0.100000)"
fill="#000000" stroke="none">
<path d="M0 590 l0 -421 103 -49 c319 -154 648 -151 963 8 96 48 235 146 315
220 82 77 121 100 223 131 107 33 234 29 463 -15 272 -51 367 -63 558 -70 161
-7 175 -6 240 16 132 43 276 126 361 206 108 103 174 219 208 367 l6 27 -1720
0 -1720 0 0 -420z"/>
</g>
</svg>
