<?xml version="1.0" standalone="no"?>
<!DOCTYPE svg PUBLIC "-//W3C//DTD SVG 20010904//EN"
 "http://www.w3.org/TR/2001/REC-SVG-20010904/DTD/svg10.dtd">
<svg version="1.0" xmlns="http://www.w3.org/2000/svg"
 width="2048.000000pt" height="1160.000000pt" viewBox="0 0 2048.000000 1160.000000"
 preserveAspectRatio="xMidYMid meet">

<g transform="translate(0.000000,1160.000000) scale(0.100000,-0.100000)"
fill="#000000" stroke="none">
<path d="M3635 8596 c-350 -144 -726 -472 -986 -861 -53 -79 -54 -80 -60 -50
-4 17 -7 80 -8 140 -1 61 -8 193 -16 295 -8 102 -15 197 -15 213 l0 27 -42
-22 c-133 -71 -355 -251 -465 -375 -287 -325 -467 -709 -528 -1124 -22 -157
-20 -466 5 -644 56 -394 164 -738 410 -1310 148 -343 279 -644 295 -680 40
-86 149 -392 199 -555 30 -100 45 -157 88 -344 7 -29 12 -36 21 -27 20 20 31
12 12 -9 -13 -15 -16 -30 -12 -62 6 -47 16 -56 122 -120 39 -23 94 -57 123
-76 29 -19 78 -48 107 -65 82 -48 219 -131 320 -193 50 -31 104 -64 120 -74
17 -9 91 -55 165 -100 74 -46 153 -94 176 -106 l40 -24 44 45 43 44 -65 168
c-36 92 -69 179 -73 193 -4 14 -9 33 -11 42 -4 12 51 -16 158 -81 154 -94 164
-98 181 -83 48 42 209 296 291 456 l45 90 -57 27 c-31 15 -79 36 -105 48 l-48
21 5 58 c5 51 13 347 46 1750 l10 433 -24 62 c-13 34 -31 85 -41 112 -9 28
-32 88 -50 135 -18 47 -57 146 -85 220 -61 156 -107 276 -145 375 -103 265
-222 631 -274 840 -46 189 -63 307 -70 490 -6 160 -4 177 21 290 25 112 69
236 106 295 9 14 38 53 64 88 27 34 47 62 46 62 -2 -1 -39 -16 -83 -34z m-226
-4926 c17 -63 28 -116 27 -118 -2 -1 -48 -1 -103 0 l-100 3 55 90 c30 50 61
103 69 118 8 16 17 27 19 25 2 -3 17 -56 33 -118z"/>
<path d="M9403 7618 c-12 -29 -190 -494 -398 -1033 -578 -1506 -551 -1438
-589 -1492 -53 -80 -71 -88 -202 -91 l-114 -4 0 -64 0 -64 425 0 425 0 0 65 0
65 -140 0 c-159 0 -203 11 -221 57 -19 49 -10 77 159 513 l29 75 425 3 424 2
41 -112 c23 -62 76 -203 117 -312 42 -110 76 -206 76 -213 0 -10 -36 -13 -165
-13 l-165 0 0 -65 0 -65 663 2 662 3 3 63 3 62 -124 0 -124 0 -36 93 c-20 50
-77 198 -127 327 -50 129 -104 269 -120 310 -16 41 -69 181 -120 310 -50 129
-128 330 -172 445 -45 116 -98 253 -118 305 -20 52 -73 190 -118 305 -45 116
-112 291 -151 390 l-69 180 -80 3 -79 3 -20 -53z m-178 -895 c4 -10 82 -218
175 -463 93 -245 172 -453 175 -462 7 -17 -15 -18 -369 -18 -220 0 -376 4
-376 9 0 5 40 110 89 233 49 122 133 334 186 471 54 136 102 247 106 247 4 0
10 -8 14 -17z"/>
<path d="M7530 7555 c-58 -28 -147 -65 -198 -80 l-93 -29 42 -36 c64 -53 81
-70 129 -130 53 -68 131 -225 155 -314 l18 -66 67 0 68 0 -4 153 c-3 83 -7
243 -10 355 l-6 202 -32 -1 c-17 -1 -78 -25 -136 -54z"/>
<path d="M10711 7223 c-6 -214 -15 -412 -18 -441 l-6 -53 53 3 53 3 43 133
c152 470 336 632 715 632 l99 0 0 -1250 0 -1250 -165 0 -165 0 0 -65 0 -65
685 0 685 0 0 65 0 65 -165 0 -165 0 0 1184 0 1185 -97 120 -97 121 -721 0
-721 0 -13 -387z"/>
<path d="M17028 7407 c-290 -358 -315 -392 -336 -447 -11 -30 -36 -95 -55
-145 -19 -49 -72 -187 -118 -305 -45 -118 -105 -276 -134 -350 -28 -74 -107
-279 -175 -455 -243 -636 -249 -648 -324 -684 -34 -17 -62 -21 -139 -21 l-97
0 0 -65 0 -65 420 0 420 0 0 65 0 65 -140 0 c-204 0 -229 15 -218 128 3 26 30
110 60 187 31 77 73 184 93 238 l38 97 423 0 422 0 57 -152 c130 -345 185
-492 185 -495 0 -2 -74 -3 -165 -3 l-165 0 0 -65 0 -65 660 0 660 0 0 65 0 65
-120 0 c-137 0 -122 -10 -169 117 -16 43 -71 184 -121 313 -50 129 -104 269
-120 310 -16 41 -70 181 -120 310 -50 129 -104 269 -120 310 -16 41 -70 181
-120 310 -50 129 -104 269 -120 310 -16 41 -70 181 -120 310 -51 129 -94 243
-97 253 -3 9 -9 17 -13 17 -4 0 -64 -69 -132 -153z m-143 -989 c62 -167 138
-368 168 -448 30 -80 58 -155 61 -167 l7 -23 -375 0 c-207 0 -376 3 -376 6 0
3 86 222 191 486 140 351 194 476 201 465 5 -9 60 -152 123 -319z"/>
<path d="M6177 7253 l-78 -4 -24 -54 c-53 -120 -69 -207 -69 -385 0 -143 3
-176 23 -245 49 -170 139 -292 284 -389 142 -94 276 -145 561 -213 341 -81
464 -124 564 -197 97 -72 137 -139 151 -254 27 -221 -81 -409 -293 -512 -101
-49 -203 -70 -336 -70 -331 0 -571 159 -733 487 -25 48 -54 118 -67 156 l-22
67 -74 0 -74 0 0 -400 0 -400 71 0 71 0 93 80 c51 44 96 80 101 80 4 0 21 -11
38 -24 44 -33 149 -85 228 -112 163 -55 448 -69 608 -30 333 81 581 329 671
672 21 79 24 111 24 279 -1 166 -4 201 -23 274 -69 256 -198 405 -457 527
-115 55 -291 113 -450 148 -369 83 -541 163 -623 290 -25 37 -27 50 -27 139
l0 97 -30 -2 c-16 -1 -65 -4 -108 -5z"/>
</g>
</svg>
