<?xml version="1.0" encoding="UTF-8"?>
<!DOCTYPE svg PUBLIC "-//W3C//DTD SVG 1.1//EN" "http://www.w3.org/Graphics/SVG/1.1/DTD/svg11.dtd">
<!-- Creator: CorelDRAW 2020 (64-Bit) -->
<svg xmlns="http://www.w3.org/2000/svg" xml:space="preserve" width="48px" height="75px" version="1.1" style="shape-rendering:geometricPrecision; text-rendering:geometricPrecision; image-rendering:optimizeQuality; fill-rule:evenodd; clip-rule:evenodd"
viewBox="0 0 0.07 0.11"
 xmlns:xlink="http://www.w3.org/1999/xlink"
 xmlns:xodm="http://www.corel.com/coreldraw/odm/2003">
 <defs>
  <style type="text/css">
   <![CDATA[
    .fil0 {fill:#CA9F3C}
   ]]>
  </style>
 </defs>
 <g id="Layer_x0020_1">
  <metadata id="CorelCorpID_0Corel-Layer"/>
  <g id="_1803483586736">
   <path class="fil0" d="M0.04 0.08l0 0.01c0.01,0 0.01,0 0.01,0 0,-0.01 0,-0.01 0,-0.01 0,-0.01 0,0 -0.01,-0.01 0,0.01 0,0.01 0,0.01z"/>
   <path class="fil0" d="M0.02 0.07c0,0.01 0,0 0,0.01 0.01,0 0.02,-0.01 0.02,-0.02 0,0 0,0 -0.01,0 0,0 -0.01,0.01 -0.01,0.01z"/>
   <path class="fil0" d="M0.05 0.06c0.01,0 0.01,0 0.01,0 0.01,-0.01 0.01,-0.01 0,-0.01 0,0 -0.01,0 -0.01,0.01z"/>
   <path class="fil0" d="M0.02 0.04c0.01,0 0.01,-0.01 0.01,-0.01 0,-0.01 0,0 0,-0.01 -0.01,0.01 -0.01,0.02 -0.01,0.02z"/>
   <path class="fil0" d="M0 0.07c0,0 0.01,0.01 0.01,0.01 0.01,-0.01 -0.01,-0.01 -0.01,-0.01 0,0 0,0 0,0z"/>
   <path class="fil0" d="M0.04 0.01c0,-0.01 -0.01,0 -0.01,-0.01l0 0c0,0.01 0,0.01 0.01,0.01z"/>
   <path class="fil0" d="M0.05 0.05c0,-0.01 -0.02,-0.01 -0.01,0 0,0 0,0 0.01,0z"/>
   <path class="fil0" d="M0.01 0.06c0,0 0,0 0.01,-0.01 0,0 0,0 -0.01,0 0,0 0,0 0,0.01z"/>
   <path class="fil0" d="M0.04 0.1c0,0 -0.01,-0.01 -0.01,-0.01 0,0.01 0.01,0.02 0.01,0.01z"/>
   <path class="fil0" d="M0.07 0.07c-0.01,0 -0.01,0.01 -0.01,0.01 0,0.01 0.01,0 0.01,-0.01z"/>
   <path class="fil0" d="M0.05 0.02c0.01,-0.01 -0.01,-0.02 0,0 0,0 0,0 0,0z"/>
   <path class="fil0" d="M0.06 0c0,0.01 0,0.01 0.01,0.01l0 0 0 0c0,-0.01 0,-0.01 -0.01,-0.01l0 0c0,0 0,0 0,0z"/>
   <path class="fil0" d="M0.06 0.03c0,0.01 0,0.01 0,0.01 0.01,0 0.01,-0.01 0.01,-0.01 0,0 -0.01,0 -0.01,0z"/>
   <path class="fil0" d="M0.07 0.11c0,0 0,0 0,0l0 0c0,0 0,0 0,0z"/>
  </g>
 </g>
</svg>
