<?xml version="1.0" encoding="UTF-8"?>
<!DOCTYPE svg PUBLIC "-//W3C//DTD SVG 1.1//EN" "http://www.w3.org/Graphics/SVG/1.1/DTD/svg11.dtd">
<!-- Creator: CorelDRAW 2020 (64-Bit) -->
<svg xmlns="http://www.w3.org/2000/svg" xml:space="preserve" width="165px" height="111px" version="1.1" style="shape-rendering:geometricPrecision; text-rendering:geometricPrecision; image-rendering:optimizeQuality; fill-rule:evenodd; clip-rule:evenodd"
viewBox="0 0 0.27 0.18"
 xmlns:xlink="http://www.w3.org/1999/xlink"
 xmlns:xodm="http://www.corel.com/coreldraw/odm/2003">
 <defs>
  <style type="text/css">
   <![CDATA[
    .fil0 {fill:#FAD378}
   ]]>
  </style>
 </defs>
 <g id="Layer_x0020_1">
  <metadata id="CorelCorpID_0Corel-Layer"/>
  <g id="_1803479092976">
   <path class="fil0" d="M0.21 0.07c0.01,0 0.01,0 0.02,0 0.01,0 0.01,0 0.01,0 0,-0.01 -0.01,-0.01 -0.02,-0.01 -0.01,0 0,0 -0.01,0.01z"/>
   <path class="fil0" d="M0.09 0.05c0.01,0 0,0 0.02,-0.01 0.01,0 0.01,0 0.01,-0.01 -0.01,0 -0.01,0 -0.02,0.01 0,0 0,0 -0.01,0.01z"/>
   <path class="fil0" d="M0.14 0.11c0.01,0 0.02,-0.02 0.01,-0.02 0,0 0,0 -0.01,0.01 0,0 0,0 0,0.01z"/>
   <path class="fil0" d="M0 0.1l0 0 0 0 0 0 0 0 0 0 0 0.01 0 0 0 0c0,0 0,0 0,0 0.01,0 0.01,-0.01 0.01,-0.02 0,0 0,0 0,-0.01 -0.01,0.01 -0.01,0.02 -0.01,0.02z"/>
   <path class="fil0" d="M0.04 0.03c0.01,0 0.01,0 0.02,0 0.01,-0.01 0.01,0 0.01,-0.01 -0.01,-0.01 -0.01,0 -0.02,0 -0.01,0.01 -0.01,0.01 -0.01,0.01z"/>
   <path class="fil0" d="M0.02 0.06c0,0.02 0.01,-0.01 0.01,-0.01 0,0 0,0 -0.01,0 0,0 0,0 0,0 0,0.01 0,0.01 0,0.01z"/>
   <path class="fil0" d="M0.1 0.08c0.01,0 0.02,-0.01 0.02,-0.01 0,-0.01 -0.01,-0.01 -0.01,0 -0.01,0 -0.01,0 -0.01,0.01z"/>
   <path class="fil0" d="M0.09 0.02c0,0.01 0.02,0 0.02,-0.01 -0.01,0 -0.02,0 -0.02,0.01z"/>
   <path class="fil0" d="M0.27 0.05l0 0c-0.01,-0.01 -0.01,-0.01 -0.02,-0.01 0,0.01 0,0.01 0.01,0.01 0,0.01 0.01,0.01 0.01,0z"/>
   <path class="fil0" d="M0.2 0.04c0,0 0,0 0.01,0.01 0.02,0 0.01,-0.01 0.01,-0.01 -0.01,0 -0.02,0 -0.02,0z"/>
   <path class="fil0" d="M0.14 0.04c0.01,0 0.01,0 0.01,0 0.01,-0.01 0.01,-0.01 0.01,-0.01 0,-0.01 0,0 -0.01,0 -0.01,0 -0.01,0 -0.01,0.01z"/>
   <path class="fil0" d="M0.09 0.12c0.01,0 0.02,-0.01 0.02,-0.02l0 0c-0.01,0 -0.02,0.02 -0.02,0.02z"/>
   <path class="fil0" d="M0.15 0.06c0,0.02 0.03,-0.01 0.02,-0.01 0,0 -0.02,0.01 -0.02,0.01z"/>
   <path class="fil0" d="M0.14 0c0,0.01 0.01,0.01 0.02,0.01 0,0 0,0 0,-0.01 0,0 0,0 0,0l-0.01 0c-0.01,0 -0.01,0 -0.01,0z"/>
   <path class="fil0" d="M0.05 0.18c0.01,0 0,-0.01 0,-0.01 0,-0.01 0,-0.01 -0.01,-0.01 0,0.01 0,0.02 0.01,0.02z"/>
   <path class="fil0" d="M0.08 0.16c0.01,0 0.01,0 0.01,-0.01 0,-0.01 0,0 0,-0.01 -0.01,0.01 -0.01,0.02 -0.01,0.02z"/>
   <path class="fil0" d="M0.05 0.15c0.01,-0.01 0.01,-0.01 0.01,-0.01 0,-0.01 0.01,-0.02 0,-0.02 0,0 -0.01,0.02 -0.01,0.03z"/>
   <path class="fil0" d="M0.02 0.14c0.01,0 0.01,0 0.01,0 0,0 0.01,-0.02 0,-0.02 0,0 -0.01,0.01 -0.01,0.02z"/>
   <path class="fil0" d="M0.01 0.15c0,0.01 0.01,0.02 0.01,0.01 0,-0.01 0,0 0,-0.01 -0.01,-0.01 0,-0.01 -0.01,-0.01 0,0 0,0 0,0.01z"/>
   <path class="fil0" d="M0.1 0.14c0,0 0.01,0.01 0.01,0 0.01,0 0.01,-0.01 0.01,-0.02 -0.01,0.01 -0.02,0.01 -0.02,0.02z"/>
   <path class="fil0" d="M0.19 0.01c0,0.01 0.01,0.01 0.01,0.01 0.01,0 0.01,0 0.02,0l0 -0.01c-0.02,0 -0.01,0 -0.03,0z"/>
   <path class="fil0" d="M0.06 0.07c0,0 0.01,0 0.01,-0.01 -0.01,0 -0.01,0 -0.01,0.01z"/>
   <path class="fil0" d="M0.06 0.11c0.01,0 0,0 0.01,-0.01 0,0 0.01,0 0.01,-0.01 -0.01,0 -0.02,0.01 -0.02,0.02z"/>
   <path class="fil0" d="M0.18 0.08c0,0 0.01,0 0.01,-0.01 0,0 0,0 -0.01,0 0,0 0,0 0,0.01z"/>
   <path class="fil0" d="M0.03 0.1c0.01,0 0.01,-0.01 0.01,-0.02 -0.01,0.01 -0.01,0.01 -0.01,0.02z"/>
  </g>
 </g>
</svg>
