<?xml version="1.0" encoding="UTF-8"?>
<!DOCTYPE svg PUBLIC "-//W3C//DTD SVG 1.1//EN" "http://www.w3.org/Graphics/SVG/1.1/DTD/svg11.dtd">
<!-- Creator: CorelDRAW 2020 (64-Bit) -->
<svg xmlns="http://www.w3.org/2000/svg" xml:space="preserve" width="73px" height="73px" version="1.1" style="shape-rendering:geometricPrecision; text-rendering:geometricPrecision; image-rendering:optimizeQuality; fill-rule:evenodd; clip-rule:evenodd"
viewBox="0 0 0.18 0.18"
 xmlns:xlink="http://www.w3.org/1999/xlink"
 xmlns:xodm="http://www.corel.com/coreldraw/odm/2003">
 <defs>
  <style type="text/css">
   <![CDATA[
    .fil0 {fill:#278394}
   ]]>
  </style>
 </defs>
 <g id="Layer_x0020_1">
  <metadata id="CorelCorpID_0Corel-Layer"/>
  <g id="_1803422541760">
   <path class="fil0" d="M0.16 0.04c-0.01,0.01 -0.09,0.1 -0.11,0.12 -0.01,0 -0.01,0.02 0,0.01 0.01,-0.01 0.05,-0.06 0.06,-0.07l0.06 -0.05c0,-0.01 0,-0.01 -0.01,-0.01z"/>
   <path class="fil0" d="M0.13 0.01c-0.01,0.01 -0.05,0.05 -0.06,0.07l-0.05 0.04c0,0.01 -0.02,0.02 0,0.02 0,0 0.09,-0.1 0.11,-0.12 0,0 0.01,0 0.01,-0.01 0,-0.01 -0.01,0 -0.01,0z"/>
   <path class="fil0" d="M0.02 0.16c0.02,-0.01 0.1,-0.1 0.12,-0.12 0,0 0.01,0 0.01,0 0.01,-0.01 0.01,0 0.01,-0.02 -0.02,0.01 -0.11,0.11 -0.13,0.13 -0.01,0 0,-0.01 -0.01,0.01z"/>
   <path class="fil0" d="M0.06 0.18c0.01,0 0.01,0 0.02,-0.01 0.01,-0.01 0.03,-0.03 0.04,-0.05 0.02,-0.01 0.06,-0.04 0.06,-0.06l-0.12 0.12z"/>
   <path class="fil0" d="M0 0.12l0.12 -0.12c-0.01,0 0,0 -0.02,0.01 -0.01,0.01 -0.03,0.03 -0.04,0.05 -0.01,0.01 -0.02,0.01 -0.03,0.02 -0.01,0.01 -0.03,0.03 -0.03,0.04z"/>
   <path class="fil0" d="M0.09 0.18c0.01,0 0.01,0 0.03,-0.02l0.05 -0.05c0.01,-0.01 0.01,-0.01 0.01,-0.02l-0.09 0.09z"/>
   <path class="fil0" d="M0 0.09l0.09 -0.09c-0.01,0 -0.01,0 -0.02,0.02l-0.05 0.04c-0.02,0.02 -0.02,0.02 -0.02,0.03z"/>
   <path class="fil0" d="M0.01 0.05l0.04 -0.04c-0.01,0 -0.04,0.03 -0.04,0.04z"/>
   <path class="fil0" d="M0.13 0.17c0.02,0 0.04,-0.02 0.04,-0.04l-0.04 0.04z"/>
  </g>
 </g>
</svg>
