<?xml version="1.0" encoding="UTF-8"?>
<!DOCTYPE svg PUBLIC "-//W3C//DTD SVG 1.1//EN" "http://www.w3.org/Graphics/SVG/1.1/DTD/svg11.dtd">
<!-- Creator: CorelDRAW 2020 (64-Bit) -->
<svg xmlns="http://www.w3.org/2000/svg" xml:space="preserve" width="373px" height="196px" version="1.1" style="shape-rendering:geometricPrecision; text-rendering:geometricPrecision; image-rendering:optimizeQuality; fill-rule:evenodd; clip-rule:evenodd"
viewBox="0 0 6.31 3.32"
 xmlns:xlink="http://www.w3.org/1999/xlink"
 xmlns:xodm="http://www.corel.com/coreldraw/odm/2003">
 <defs>
  <style type="text/css">
   <![CDATA[
    .fil0 {fill:#F5A078}
   ]]>
  </style>
 </defs>
 <g id="Layer_x0020_1">
  <metadata id="CorelCorpID_0Corel-Layer"/>
  <path class="fil0" d="M6.31 3.32l0 -0.09c-0.15,-0.1 -0.35,-0.22 -0.49,-0.36 -0.29,-0.31 -0.43,-0.6 -0.6,-1l-0.24 -0.45c-0.28,-0.47 -0.68,-1.07 -1.16,-1.31 -0.11,-0.05 -0.23,-0.1 -0.35,-0.11l-0.18 0c-0.06,0.01 -0.12,0.02 -0.18,0.04 -0.06,0.03 -0.07,0.04 -0.12,0.07 -0.08,0.05 -0.14,0.09 -0.22,0.14 -0.08,0.04 -0.14,0.08 -0.21,0.12 -0.54,0.31 -1.54,0.8 -2.11,0.52 -0.24,-0.12 -0.37,-0.41 -0.37,-0.7l-0.08 0c0,0.37 0.2,0.74 0.58,0.84 0.94,0.23 2.41,-0.87 2.59,-0.92 0.75,-0.22 1.45,0.82 1.76,1.39 0.1,0.18 0.28,0.52 0.35,0.71 0.13,0.32 0.36,0.6 0.61,0.82 0.08,0.07 0.32,0.26 0.42,0.29z"/>
 </g>
</svg>
